<svg width="111" height="49" viewBox="0 0 111 49" fill="none" xmlns="http://www.w3.org/2000/svg">
<path d="M95 44C95 46.7614 92.7614 49 90 49C87.2386 49 85 46.7614 85 44C85 44 87.2386 44 90 44C92.7614 44 95 44 95 44Z" fill="black"/>
<path fill-rule="evenodd" clip-rule="evenodd" d="M69 0C67.8954 0 67 0.895431 67 2V42C67 43.1046 67.8954 44 69 44H109C110.105 44 111 43.1046 111 42V2C111 0.895431 110.105 0 109 0L69 0ZM71 3C70.4477 3 70 3.44772 70 4V8C70 8.55228 70.4477 9 71 9H75C75.5523 9 76 8.55228 76 8V4C76 3.44772 75.5523 3 75 3H71ZM78 4C78 3.44772 78.4477 3 79 3H83C83.5523 3 84 3.44772 84 4V8C84 8.55228 83.5523 9 83 9H79C78.4477 9 78 8.55228 78 8V4ZM87 3C86.4477 3 86 3.44772 86 4V8C86 8.55228 86.4477 9 87 9H91C91.5523 9 92 8.55228 92 8V4C92 3.44772 91.5523 3 91 3H87ZM94 4C94 3.44772 94.4477 3 95 3H99C99.5523 3 100 3.44772 100 4V8C100 8.55228 99.5523 9 99 9H95C94.4477 9 94 8.55228 94 8V4ZM103 3C102.448 3 102 3.44772 102 4V8C102 8.55228 102.448 9 103 9H107C107.552 9 108 8.55228 108 8V4C108 3.44772 107.552 3 107 3H103ZM70 12C70 11.4477 70.4477 11 71 11H75C75.5523 11 76 11.4477 76 12V16C76 16.5523 75.5523 17 75 17H71C70.4477 17 70 16.5523 70 16V12ZM79 11C78.4477 11 78 11.4477 78 12V16C78 16.5523 78.4477 17 79 17H83C83.5523 17 84 16.5523 84 16V12C84 11.4477 83.5523 11 83 11H79ZM86 12C86 11.4477 86.4477 11 87 11H91C91.5523 11 92 11.4477 92 12V16C92 16.5523 91.5523 17 91 17H87C86.4477 17 86 16.5523 86 16V12ZM95 11C94.4477 11 94 11.4477 94 12V16C94 16.5523 94.4477 17 95 17H99C99.5523 17 100 16.5523 100 16V12C100 11.4477 99.5523 11 99 11H95ZM102 12C102 11.4477 102.448 11 103 11H107C107.552 11 108 11.4477 108 12V16C108 16.5523 107.552 17 107 17H103C102.448 17 102 16.5523 102 16V12ZM71 19C70.4477 19 70 19.4477 70 20V24C70 24.5523 70.4477 25 71 25H75C75.5523 25 76 24.5523 76 24V20C76 19.4477 75.5523 19 75 19H71ZM78 20C78 19.4477 78.4477 19 79 19H83C83.5523 19 84 19.4477 84 20V24C84 24.5523 83.5523 25 83 25H79C78.4477 25 78 24.5523 78 24V20ZM103 19C102.448 19 102 19.4477 102 20V24C102 24.5523 102.448 25 103 25H107C107.552 25 108 24.5523 108 24V20C108 19.4477 107.552 19 107 19H103ZM86 20C86 19.4477 86.4477 19 87 19H91C91.5523 19 92 19.4477 92 20V24C92 24.5523 91.5523 25 91 25H87C86.4477 25 86 24.5523 86 24V20ZM95 19C94.4477 19 94 19.4477 94 20V24C94 24.5523 94.4477 25 95 25H99C99.5523 25 100 24.5523 100 24V20C100 19.4477 99.5523 19 99 19H95ZM70 28C70 27.4477 70.4477 27 71 27H75C75.5523 27 76 27.4477 76 28V32C76 32.5523 75.5523 33 75 33H71C70.4477 33 70 32.5523 70 32V28ZM79 27C78.4477 27 78 27.4477 78 28V32C78 32.5523 78.4477 33 79 33H83C83.5523 33 84 32.5523 84 32V28C84 27.4477 83.5523 27 83 27H79ZM86 28C86 27.4477 86.4477 27 87 27H91C91.5523 27 92 27.4477 92 28V32C92 32.5523 91.5523 33 91 33H87C86.4477 33 86 32.5523 86 32V28ZM95 27C94.4477 27 94 27.4477 94 28V32C94 32.5523 94.4477 33 95 33H99C99.5523 33 100 32.5523 100 32V28C100 27.4477 99.5523 27 99 27H95ZM102 28C102 27.4477 102.448 27 103 27H107C107.552 27 108 27.4477 108 28V32C108 32.5523 107.552 33 107 33H103C102.448 33 102 32.5523 102 32V28ZM71 35C70.4477 35 70 35.4477 70 36V40C70 40.5523 70.4477 41 71 41H75C75.5523 41 76 40.5523 76 40V36C76 35.4477 75.5523 35 75 35H71ZM78 36C78 35.4477 78.4477 35 79 35H83C83.5523 35 84 35.4477 84 36V40C84 40.5523 83.5523 41 83 41H79C78.4477 41 78 40.5523 78 40V36ZM87 35C86.4477 35 86 35.4477 86 36V40C86 40.5523 86.4477 41 87 41H91C91.5523 41 92 40.5523 92 40V36C92 35.4477 91.5523 35 91 35H87ZM94 36C94 35.4477 94.4477 35 95 35H99C99.5523 35 100 35.4477 100 36V40C100 40.5523 99.5523 41 99 41H95C94.4477 41 94 40.5523 94 40V36ZM103 35C102.448 35 102 35.4477 102 36V40C102 40.5523 102.448 41 103 41H107C107.552 41 108 40.5523 108 40V36C108 35.4477 107.552 35 107 35H103Z" fill="black" style="mix-blend-mode:exclusion"/>
<path d="M28 44C28 46.7614 25.7614 49 23 49C20.2386 49 18 46.7614 18 44C18 44 20.2386 44 23 44C25.7614 44 28 44 28 44Z" fill="black"/>
<path fill-rule="evenodd" clip-rule="evenodd" d="M2 0C0.895431 0 0 0.895431 0 2L0 42C0 43.1046 0.895431 44 2 44H42C43.1046 44 44 43.1046 44 42V2C44 0.895431 43.1046 0 42 0L2 0ZM4 3C3.44772 3 3 3.44772 3 4V8C3 8.55228 3.44772 9 4 9H8C8.55228 9 9 8.55228 9 8V4C9 3.44772 8.55228 3 8 3H4ZM11 4C11 3.44772 11.4477 3 12 3H16C16.5523 3 17 3.44772 17 4V8C17 8.55228 16.5523 9 16 9H12C11.4477 9 11 8.55228 11 8V4ZM20 3C19.4477 3 19 3.44772 19 4V8C19 8.55228 19.4477 9 20 9H24C24.5523 9 25 8.55228 25 8V4C25 3.44772 24.5523 3 24 3H20ZM27 4C27 3.44772 27.4477 3 28 3H32C32.5523 3 33 3.44772 33 4V8C33 8.55228 32.5523 9 32 9H28C27.4477 9 27 8.55228 27 8V4ZM36 3C35.4477 3 35 3.44772 35 4V8C35 8.55228 35.4477 9 36 9H40C40.5523 9 41 8.55228 41 8V4C41 3.44772 40.5523 3 40 3H36ZM3 12C3 11.4477 3.44772 11 4 11H8C8.55228 11 9 11.4477 9 12V16C9 16.5523 8.55228 17 8 17H4C3.44772 17 3 16.5523 3 16V12ZM12 11C11.4477 11 11 11.4477 11 12V16C11 16.5523 11.4477 17 12 17H16C16.5523 17 17 16.5523 17 16V12C17 11.4477 16.5523 11 16 11H12ZM19 12C19 11.4477 19.4477 11 20 11H24C24.5523 11 25 11.4477 25 12V16C25 16.5523 24.5523 17 24 17H20C19.4477 17 19 16.5523 19 16V12ZM28 11C27.4477 11 27 11.4477 27 12V16C27 16.5523 27.4477 17 28 17H32C32.5523 17 33 16.5523 33 16V12C33 11.4477 32.5523 11 32 11H28ZM35 12C35 11.4477 35.4477 11 36 11H40C40.5523 11 41 11.4477 41 12V16C41 16.5523 40.5523 17 40 17H36C35.4477 17 35 16.5523 35 16V12ZM4 19C3.44772 19 3 19.4477 3 20V24C3 24.5523 3.44772 25 4 25H8C8.55228 25 9 24.5523 9 24V20C9 19.4477 8.55228 19 8 19H4ZM11 20C11 19.4477 11.4477 19 12 19H16C16.5523 19 17 19.4477 17 20V24C17 24.5523 16.5523 25 16 25H12C11.4477 25 11 24.5523 11 24V20ZM36 19C35.4477 19 35 19.4477 35 20V24C35 24.5523 35.4477 25 36 25H40C40.5523 25 41 24.5523 41 24V20C41 19.4477 40.5523 19 40 19H36ZM19 20C19 19.4477 19.4477 19 20 19H24C24.5523 19 25 19.4477 25 20V24C25 24.5523 24.5523 25 24 25H20C19.4477 25 19 24.5523 19 24V20ZM28 19C27.4477 19 27 19.4477 27 20V24C27 24.5523 27.4477 25 28 25H32C32.5523 25 33 24.5523 33 24V20C33 19.4477 32.5523 19 32 19H28ZM3 28C3 27.4477 3.44772 27 4 27H8C8.55228 27 9 27.4477 9 28V32C9 32.5523 8.55228 33 8 33H4C3.44772 33 3 32.5523 3 32V28ZM12 27C11.4477 27 11 27.4477 11 28V32C11 32.5523 11.4477 33 12 33H16C16.5523 33 17 32.5523 17 32V28C17 27.4477 16.5523 27 16 27H12ZM19 28C19 27.4477 19.4477 27 20 27H24C24.5523 27 25 27.4477 25 28V32C25 32.5523 24.5523 33 24 33H20C19.4477 33 19 32.5523 19 32V28ZM28 27C27.4477 27 27 27.4477 27 28V32C27 32.5523 27.4477 33 28 33H32C32.5523 33 33 32.5523 33 32V28C33 27.4477 32.5523 27 32 27H28ZM35 28C35 27.4477 35.4477 27 36 27H40C40.5523 27 41 27.4477 41 28V32C41 32.5523 40.5523 33 40 33H36C35.4477 33 35 32.5523 35 32V28ZM4 35C3.44772 35 3 35.4477 3 36V40C3 40.5523 3.44772 41 4 41H8C8.55228 41 9 40.5523 9 40V36C9 35.4477 8.55228 35 8 35H4ZM11 36C11 35.4477 11.4477 35 12 35H16C16.5523 35 17 35.4477 17 36V40C17 40.5523 16.5523 41 16 41H12C11.4477 41 11 40.5523 11 40V36ZM20 35C19.4477 35 19 35.4477 19 36V40C19 40.5523 19.4477 41 20 41H24C24.5523 41 25 40.5523 25 40V36C25 35.4477 24.5523 35 24 35H20ZM27 36C27 35.4477 27.4477 35 28 35H32C32.5523 35 33 35.4477 33 36V40C33 40.5523 32.5523 41 32 41H28C27.4477 41 27 40.5523 27 40V36ZM36 35C35.4477 35 35 35.4477 35 36V40C35 40.5523 35.4477 41 36 41H40C40.5523 41 41 40.5523 41 40V36C41 35.4477 40.5523 35 40 35H36Z" fill="black" style="mix-blend-mode:exclusion"/>
<path d="M64.0607 27.0607C64.6464 26.4749 64.6464 25.5251 64.0607 24.9393L54.5147 15.3934C53.9289 14.8076 52.9792 14.8076 52.3934 15.3934C51.8076 15.9792 51.8076 16.9289 52.3934 17.5147L60.8787 26L52.3934 34.4853C51.8076 35.0711 51.8076 36.0208 52.3934 36.6066C52.9792 37.1924 53.9289 37.1924 54.5147 36.6066L64.0607 27.0607ZM47 27.5H63V24.5H47V27.5Z" fill="black"/>
</svg>
