<svg width="118" height="49" viewBox="0 0 118 49" fill="none" xmlns="http://www.w3.org/2000/svg">
<path d="M28 44C28 46.7614 25.7614 49 23 49C20.2386 49 18 46.7614 18 44C18 44 20.2386 44 23 44C25.7614 44 28 44 28 44Z" fill="black"/>
<path fill-rule="evenodd" clip-rule="evenodd" d="M2 0C0.895431 0 0 0.895431 0 2L0 42C0 43.1046 0.895431 44 2 44H42C43.1046 44 44 43.1046 44 42V2C44 0.895431 43.1046 0 42 0L2 0ZM4 3C3.44772 3 3 3.44772 3 4V8C3 8.55228 3.44772 9 4 9H8C8.55228 9 9 8.55228 9 8V4C9 3.44772 8.55228 3 8 3H4ZM11 4C11 3.44772 11.4477 3 12 3H16C16.5523 3 17 3.44772 17 4V8C17 8.55228 16.5523 9 16 9H12C11.4477 9 11 8.55228 11 8V4ZM20 3C19.4477 3 19 3.44772 19 4V8C19 8.55228 19.4477 9 20 9H24C24.5523 9 25 8.55228 25 8V4C25 3.44772 24.5523 3 24 3H20ZM27 4C27 3.44772 27.4477 3 28 3H32C32.5523 3 33 3.44772 33 4V8C33 8.55228 32.5523 9 32 9H28C27.4477 9 27 8.55228 27 8V4ZM36 3C35.4477 3 35 3.44772 35 4V8C35 8.55228 35.4477 9 36 9H40C40.5523 9 41 8.55228 41 8V4C41 3.44772 40.5523 3 40 3H36ZM3 12C3 11.4477 3.44772 11 4 11H8C8.55228 11 9 11.4477 9 12V16C9 16.5523 8.55228 17 8 17H4C3.44772 17 3 16.5523 3 16V12ZM12 11C11.4477 11 11 11.4477 11 12V16C11 16.5523 11.4477 17 12 17H16C16.5523 17 17 16.5523 17 16V12C17 11.4477 16.5523 11 16 11H12ZM19 12C19 11.4477 19.4477 11 20 11H24C24.5523 11 25 11.4477 25 12V16C25 16.5523 24.5523 17 24 17H20C19.4477 17 19 16.5523 19 16V12ZM28 11C27.4477 11 27 11.4477 27 12V16C27 16.5523 27.4477 17 28 17H32C32.5523 17 33 16.5523 33 16V12C33 11.4477 32.5523 11 32 11H28ZM35 12C35 11.4477 35.4477 11 36 11H40C40.5523 11 41 11.4477 41 12V16C41 16.5523 40.5523 17 40 17H36C35.4477 17 35 16.5523 35 16V12ZM4 19C3.44772 19 3 19.4477 3 20V24C3 24.5523 3.44772 25 4 25H8C8.55228 25 9 24.5523 9 24V20C9 19.4477 8.55228 19 8 19H4ZM11 20C11 19.4477 11.4477 19 12 19H16C16.5523 19 17 19.4477 17 20V24C17 24.5523 16.5523 25 16 25H12C11.4477 25 11 24.5523 11 24V20ZM36 19C35.4477 19 35 19.4477 35 20V24C35 24.5523 35.4477 25 36 25H40C40.5523 25 41 24.5523 41 24V20C41 19.4477 40.5523 19 40 19H36ZM19 20C19 19.4477 19.4477 19 20 19H24C24.5523 19 25 19.4477 25 20V24C25 24.5523 24.5523 25 24 25H20C19.4477 25 19 24.5523 19 24V20ZM28 19C27.4477 19 27 19.4477 27 20V24C27 24.5523 27.4477 25 28 25H32C32.5523 25 33 24.5523 33 24V20C33 19.4477 32.5523 19 32 19H28ZM3 28C3 27.4477 3.44772 27 4 27H8C8.55228 27 9 27.4477 9 28V32C9 32.5523 8.55228 33 8 33H4C3.44772 33 3 32.5523 3 32V28ZM12 27C11.4477 27 11 27.4477 11 28V32C11 32.5523 11.4477 33 12 33H16C16.5523 33 17 32.5523 17 32V28C17 27.4477 16.5523 27 16 27H12ZM19 28C19 27.4477 19.4477 27 20 27H24C24.5523 27 25 27.4477 25 28V32C25 32.5523 24.5523 33 24 33H20C19.4477 33 19 32.5523 19 32V28ZM28 27C27.4477 27 27 27.4477 27 28V32C27 32.5523 27.4477 33 28 33H32C32.5523 33 33 32.5523 33 32V28C33 27.4477 32.5523 27 32 27H28ZM35 28C35 27.4477 35.4477 27 36 27H40C40.5523 27 41 27.4477 41 28V32C41 32.5523 40.5523 33 40 33H36C35.4477 33 35 32.5523 35 32V28ZM4 35C3.44772 35 3 35.4477 3 36V40C3 40.5523 3.44772 41 4 41H8C8.55228 41 9 40.5523 9 40V36C9 35.4477 8.55228 35 8 35H4ZM11 36C11 35.4477 11.4477 35 12 35H16C16.5523 35 17 35.4477 17 36V40C17 40.5523 16.5523 41 16 41H12C11.4477 41 11 40.5523 11 40V36ZM20 35C19.4477 35 19 35.4477 19 36V40C19 40.5523 19.4477 41 20 41H24C24.5523 41 25 40.5523 25 40V36C25 35.4477 24.5523 35 24 35H20ZM27 36C27 35.4477 27.4477 35 28 35H32C32.5523 35 33 35.4477 33 36V40C33 40.5523 32.5523 41 32 41H28C27.4477 41 27 40.5523 27 40V36ZM36 35C35.4477 35 35 35.4477 35 36V40C35 40.5523 35.4477 41 36 41H40C40.5523 41 41 40.5523 41 40V36C41 35.4477 40.5523 35 40 35H36Z" fill="black" style="mix-blend-mode:exclusion"/>
<path fill-rule="evenodd" clip-rule="evenodd" d="M67 0V44H118V0H67ZM73 40C73 40.5523 73.4477 41 74 41H78C78.5523 41 79 40.5523 79 40V36C79 35.4477 78.5523 35 78 35H74C73.4477 35 73 35.4477 73 36V40ZM74 33C73.4477 33 73 32.5523 73 32V28C73 27.4477 73.4477 27 74 27H78C78.5523 27 79 27.4477 79 28V32C79 32.5523 78.5523 33 78 33H74ZM73 24C73 24.5523 73.4477 25 74 25H78C78.5523 25 79 24.5523 79 24V20C79 19.4477 78.5523 19 78 19H74C73.4477 19 73 19.4477 73 20V24ZM74 17C73.4477 17 73 16.5523 73 16V12C73 11.4477 73.4477 11 74 11H78C78.5523 11 79 11.4477 79 12V16C79 16.5523 78.5523 17 78 17H74ZM73 8C73 8.55228 73.4477 9 74 9H78C78.5523 9 79 8.55228 79 8V4C79 3.44772 78.5523 3 78 3H74C73.4477 3 73 3.44772 73 4V8ZM82 41C81.4477 41 81 40.5523 81 40V36C81 35.4477 81.4477 35 82 35H86C86.5523 35 87 35.4477 87 36V40C87 40.5523 86.5523 41 86 41H82ZM81 32C81 32.5523 81.4477 33 82 33H86C86.5523 33 87 32.5523 87 32V28C87 27.4477 86.5523 27 86 27H82C81.4477 27 81 27.4477 81 28V32ZM82 25C81.4477 25 81 24.5523 81 24V20C81 19.4477 81.4477 19 82 19H86C86.5523 19 87 19.4477 87 20V24C87 24.5523 86.5523 25 86 25H82ZM81 16C81 16.5523 81.4477 17 82 17H86C86.5523 17 87 16.5523 87 16V12C87 11.4477 86.5523 11 86 11H82C81.4477 11 81 11.4477 81 12V16ZM82 9C81.4477 9 81 8.55228 81 8V4C81 3.44772 81.4477 3 82 3H86C86.5523 3 87 3.44772 87 4V8C87 8.55228 86.5523 9 86 9H82ZM89 40C89 40.5523 89.4477 41 90 41H94C94.5523 41 95 40.5523 95 40V36C95 35.4477 94.5523 35 94 35H90C89.4477 35 89 35.4477 89 36V40ZM90 33C89.4477 33 89 32.5523 89 32V28C89 27.4477 89.4477 27 90 27H94C94.5523 27 95 27.4477 95 28V32C95 32.5523 94.5523 33 94 33H90ZM89 24C89 24.5523 89.4477 25 90 25H94C94.5523 25 95 24.5523 95 24V20C95 19.4477 94.5523 19 94 19H90C89.4477 19 89 19.4477 89 20V24ZM90 17C89.4477 17 89 16.5523 89 16V12C89 11.4477 89.4477 11 90 11H94C94.5523 11 95 11.4477 95 12V16C95 16.5523 94.5523 17 94 17H90ZM89 8C89 8.55228 89.4477 9 90 9H94C94.5523 9 95 8.55228 95 8V4C95 3.44772 94.5523 3 94 3H90C89.4477 3 89 3.44772 89 4V8ZM98 41C97.4477 41 97 40.5523 97 40V36C97 35.4477 97.4477 35 98 35H102C102.552 35 103 35.4477 103 36V40C103 40.5523 102.552 41 102 41H98ZM97 32C97 32.5523 97.4477 33 98 33H102C102.552 33 103 32.5523 103 32V28C103 27.4477 102.552 27 102 27H98C97.4477 27 97 27.4477 97 28V32ZM98 25C97.4477 25 97 24.5523 97 24V20C97 19.4477 97.4477 19 98 19H102C102.552 19 103 19.4477 103 20V24C103 24.5523 102.552 25 102 25H98ZM97 16C97 16.5523 97.4477 17 98 17H102C102.552 17 103 16.5523 103 16V12C103 11.4477 102.552 11 102 11H98C97.4477 11 97 11.4477 97 12V16ZM98 9C97.4477 9 97 8.55228 97 8V4C97 3.44772 97.4477 3 98 3H102C102.552 3 103 3.44772 103 4V8C103 8.55228 102.552 9 102 9H98ZM105 40C105 40.5523 105.448 41 106 41H110C110.552 41 111 40.5523 111 40V36C111 35.4477 110.552 35 110 35H106C105.448 35 105 35.4477 105 36V40ZM106 33C105.448 33 105 32.5523 105 32V28C105 27.4477 105.448 27 106 27H110C110.552 27 111 27.4477 111 28V32C111 32.5523 110.552 33 110 33H106ZM105 24C105 24.5523 105.448 25 106 25H110C110.552 25 111 24.5523 111 24V20C111 19.4477 110.552 19 110 19H106C105.448 19 105 19.4477 105 20V24ZM106 17C105.448 17 105 16.5523 105 16V12C105 11.4477 105.448 11 106 11H110C110.552 11 111 11.4477 111 12V16C111 16.5523 110.552 17 110 17H106ZM105 8C105 8.55228 105.448 9 106 9H110C110.552 9 111 8.55228 111 8V4C111 3.44772 110.552 3 110 3H106C105.448 3 105 3.44772 105 4V8Z" fill="black"/>
<path d="M64.0607 23.0607C64.6464 22.4749 64.6464 21.5251 64.0607 20.9393L54.5147 11.3934C53.9289 10.8076 52.9792 10.8076 52.3934 11.3934C51.8076 11.9792 51.8076 12.9289 52.3934 13.5147L60.8787 22L52.3934 30.4853C51.8076 31.0711 51.8076 32.0208 52.3934 32.6066C52.9792 33.1924 53.9289 33.1924 54.5147 32.6066L64.0607 23.0607ZM47 23.5H63V20.5H47V23.5Z" fill="black"/>
</svg>
