<?xml version="1.0" encoding="UTF-8" standalone="no"?>
<svg
   xmlns:dc="http://purl.org/dc/elements/1.1/"
   xmlns:cc="http://creativecommons.org/ns#"
   xmlns:rdf="http://www.w3.org/1999/02/22-rdf-syntax-ns#"
   xmlns:svg="http://www.w3.org/2000/svg"
   xmlns="http://www.w3.org/2000/svg"
   xmlns:sodipodi="http://sodipodi.sourceforge.net/DTD/sodipodi-0.dtd"
   xmlns:inkscape="http://www.inkscape.org/namespaces/inkscape"
   width="26.22201mm"
   height="7.3181124mm"
   viewBox="0 0 26.222009 7.3181123"
   version="1.1"
   id="svg1198"
   inkscape:version="1.0.1 (3bc2e813f5, 2020-09-07)"
   sodipodi:docname="DiceKey black.svg"
   inkscape:export-filename="C:\Users\stuar\OneDrive\DiceKeys\Logos\multicaps-die.png"
   inkscape:export-xdpi="462.13"
   inkscape:export-ydpi="462.13">
  <defs
     id="defs1192">
    <rect
       x="72.80191"
       y="153.37955"
       width="7.381875"
       height="13.546667"
       id="rect1223" />
  </defs>
  <sodipodi:namedview
     id="base"
     pagecolor="#ffffff"
     bordercolor="#666666"
     borderopacity="1.0"
     inkscape:pageopacity="0.0"
     inkscape:pageshadow="2"
     inkscape:zoom="18.68"
     inkscape:cx="69.364445"
     inkscape:cy="33.650488"
     inkscape:document-units="mm"
     inkscape:current-layer="text1202"
     inkscape:document-rotation="0"
     showgrid="false"
     inkscape:window-width="3747"
     inkscape:window-height="2126"
     inkscape:window-x="-11"
     inkscape:window-y="-11"
     inkscape:window-maximized="1" />
  <metadata
     id="metadata1195">
    <rdf:RDF>
      <cc:Work
         rdf:about="">
        <dc:format>image/svg+xml</dc:format>
        <dc:type
           rdf:resource="http://purl.org/dc/dcmitype/StillImage" />
        <dc:title></dc:title>
      </cc:Work>
    </rdf:RDF>
  </metadata>
  <g
     inkscape:label="Layer 1"
     inkscape:groupmode="layer"
     id="layer1"
     transform="translate(-39.618334,-130.76492)">
    <g
       aria-label="DiceKeys"
       id="text1202"
       style="font-style:normal;font-variant:normal;font-weight:normal;font-stretch:normal;font-size:9.00007px;line-height:1.25;font-family:Inconsolata, monospace;-inkscape-font-specification:'Inconsolata, monospace, Normal';font-variant-ligatures:normal;font-variant-caps:normal;font-variant-numeric:normal;font-feature-settings:normal;text-align:start;letter-spacing:0px;word-spacing:0px;writing-mode:lr-tb;text-anchor:start;fill:#000000;fill-opacity:1;stroke:none;stroke-width:0.264583">
      <path
         d="m 43.990926,133.55658 q 0,0.7383 -0.188967,1.29201 -0.188966,0.54931 -0.553715,0.91407 -0.360354,0.36035 -0.887702,0.54053 -0.527348,0.18018 -1.256846,0.18018 h -1.204111 q -0.101075,0 -0.193361,-0.0659 -0.08789,-0.0703 -0.08789,-0.24171 v -5.07132 q 0,-0.17139 0.08789,-0.2373 0.09229,-0.0703 0.193361,-0.0703 h 1.287608 q 0.738287,0 1.248056,0.19336 0.50977,0.18897 0.852546,0.54932 0.347171,0.35596 0.522953,0.86573 0.180178,0.50977 0.180178,1.15138 z m -0.795417,0.0308 q 0,-0.46143 -0.114258,-0.85694 -0.114259,-0.3999 -0.360355,-0.68994 -0.241701,-0.29005 -0.615239,-0.45264 -0.373538,-0.1626 -0.96241,-0.1626 h -0.769049 v 4.42532 h 0.777838 q 0.544927,0 0.918465,-0.13623 0.373538,-0.13623 0.624028,-0.41748 0.25049,-0.28125 0.373538,-0.70313 0.127442,-0.42628 0.127442,-1.00636 z"
         style="font-style:normal;font-variant:normal;font-weight:normal;font-stretch:normal;font-size:9.00007px;line-height:1.25;font-family:Calibri;-inkscape-font-specification:Calibri;font-variant-ligatures:normal;font-variant-caps:normal;font-variant-numeric:normal;font-feature-settings:normal;text-align:start;letter-spacing:0px;word-spacing:0px;writing-mode:lr-tb;text-anchor:start;fill:#000000;fill-opacity:1;stroke:none;stroke-width:0.264583"
         id="path1204-8" />
      <path
         d="m 49.616705,135.77144 q 0,0.0747 -0.0044,0.13184 -0.0044,0.0527 -0.01758,0.0923 -0.0088,0.0352 -0.02637,0.0659 -0.01318,0.0264 -0.07031,0.0835 -0.05274,0.0527 -0.184572,0.13623 -0.131837,0.0791 -0.29883,0.14502 -0.162599,0.0615 -0.35596,0.10108 -0.193361,0.0396 -0.399905,0.0396 -0.426273,0 -0.755866,-0.14063 -0.329592,-0.14062 -0.553715,-0.40869 -0.219728,-0.27247 -0.338381,-0.66358 -0.114259,-0.39551 -0.114259,-0.90968 0,-0.58447 0.140626,-1.00196 0.145021,-0.42188 0.391116,-0.68995 0.250491,-0.26806 0.584478,-0.39551 0.338381,-0.13183 0.729497,-0.13183 0.188967,0 0.364749,0.0352 0.180177,0.0352 0.329593,0.0923 0.149415,0.0571 0.263674,0.13184 0.118653,0.0747 0.171388,0.12744 0.05273,0.0527 0.07031,0.0835 0.02197,0.0308 0.03516,0.0747 0.01318,0.0396 0.01758,0.0923 0.0044,0.0527 0.0044,0.13184 0,0.17138 -0.03955,0.2417 -0.03955,0.0659 -0.09668,0.0659 -0.06592,0 -0.15381,-0.0703 -0.0835,-0.0747 -0.215334,-0.1626 -0.131837,-0.0879 -0.320803,-0.1582 -0.184572,-0.0747 -0.439457,-0.0747 -0.522953,0 -0.804205,0.4043 -0.276858,0.39991 -0.276858,1.16456 0,0.38233 0.07031,0.67237 0.07471,0.28565 0.215334,0.47901 0.140626,0.19336 0.342776,0.29004 0.206545,0.0923 0.470219,0.0923 0.25049,0 0.439456,-0.0791 0.188966,-0.0791 0.325198,-0.17139 0.140626,-0.0967 0.232912,-0.17138 0.09668,-0.0791 0.149415,-0.0791 0.03076,0 0.05273,0.0176 0.02197,0.0176 0.03516,0.0615 0.01758,0.0396 0.02197,0.10547 0.0088,0.0615 0.0088,0.14941 z"
         style="font-style:normal;font-variant:normal;font-weight:normal;font-stretch:normal;font-size:9.00007px;line-height:1.25;font-family:Calibri;-inkscape-font-specification:Calibri;font-variant-ligatures:normal;font-variant-caps:normal;font-variant-numeric:normal;font-feature-settings:normal;text-align:start;letter-spacing:0px;word-spacing:0px;writing-mode:lr-tb;text-anchor:start;fill:#000000;fill-opacity:1;stroke:none;stroke-width:0.264583"
         id="path1208-0" />
      <path
         d="m 53.613919,134.22455 q 0,0.17139 -0.08789,0.24611 -0.0835,0.0703 -0.193361,0.0703 h -2.592793 q 0,0.3296 0.06592,0.59327 0.06592,0.26366 0.219728,0.45264 0.15381,0.18897 0.399906,0.29004 0.246096,0.10108 0.602055,0.10108 0.281253,0 0.500981,-0.0439 0.219728,-0.0483 0.377932,-0.10546 0.162599,-0.0571 0.263674,-0.10107 0.10547,-0.0483 0.158205,-0.0483 0.03076,0 0.05273,0.0176 0.02637,0.0132 0.03955,0.0439 0.01318,0.0308 0.01758,0.0879 0.0088,0.0527 0.0088,0.13184 0,0.0571 -0.0044,0.10107 -0.0044,0.0395 -0.01318,0.0747 -0.0044,0.0308 -0.02197,0.0571 -0.01318,0.0264 -0.03955,0.0527 -0.02197,0.022 -0.140626,0.0791 -0.118654,0.0527 -0.30762,0.10547 -0.188966,0.0527 -0.439456,0.0923 -0.246096,0.044 -0.527348,0.044 -0.487797,0 -0.85694,-0.13623 -0.364749,-0.13624 -0.61524,-0.4043 -0.25049,-0.26807 -0.377932,-0.67237 -0.127443,-0.4043 -0.127443,-0.94044 0,-0.50977 0.131837,-0.91407 0.131837,-0.40869 0.377933,-0.68995 0.25049,-0.28564 0.602055,-0.43506 0.351566,-0.15381 0.786628,-0.15381 0.465823,0 0.791021,0.14942 0.329593,0.14941 0.540532,0.4043 0.210939,0.25049 0.307619,0.59326 0.101075,0.33839 0.101075,0.72511 z m -0.729497,-0.21532 q 0.01318,-0.5713 -0.254885,-0.89649 -0.263674,-0.3252 -0.786627,-0.3252 -0.268069,0 -0.470219,0.10108 -0.20215,0.10106 -0.338381,0.26805 -0.136232,0.167 -0.21094,0.39112 -0.07471,0.21973 -0.0835,0.46144 z"
         style="font-style:normal;font-variant:normal;font-weight:normal;font-stretch:normal;font-size:9.00007px;line-height:1.25;font-family:Calibri;-inkscape-font-specification:Calibri;font-variant-ligatures:normal;font-variant-caps:normal;font-variant-numeric:normal;font-feature-settings:normal;text-align:start;letter-spacing:0px;word-spacing:0px;writing-mode:lr-tb;text-anchor:start;fill:#000000;fill-opacity:1;stroke:none;stroke-width:0.264583"
         id="path1210-4" />
      <path
         d="m 58.456536,136.36032 q 0,0.0352 -0.01758,0.0659 -0.01318,0.0264 -0.05713,0.0439 -0.04395,0.0176 -0.118653,0.0264 -0.07471,0.0132 -0.193361,0.0132 -0.15381,0 -0.25049,-0.0132 -0.09668,-0.0132 -0.145021,-0.0483 -0.04834,-0.0352 -0.0791,-0.0791 l -2.091814,-2.84328 v 2.84328 q 0,0.0308 -0.01758,0.0615 -0.01758,0.0264 -0.06152,0.0439 -0.04395,0.0132 -0.118654,0.022 -0.07031,0.0132 -0.180177,0.0132 -0.105469,0 -0.180177,-0.0132 -0.07471,-0.009 -0.118653,-0.022 -0.04395,-0.0176 -0.06152,-0.0439 -0.01758,-0.0308 -0.01758,-0.0615 v -5.45805 q 0,-0.0352 0.01758,-0.0615 0.01758,-0.0264 0.06152,-0.0396 0.04395,-0.0176 0.118653,-0.0264 0.07471,-0.0132 0.180177,-0.0132 0.109864,0 0.180177,0.0132 0.07471,0.009 0.118654,0.0264 0.04395,0.0132 0.06152,0.0396 0.01758,0.0264 0.01758,0.0615 v 2.52689 l 2.012711,-2.52689 q 0.02637,-0.0396 0.06152,-0.0659 0.03516,-0.0264 0.0835,-0.0395 0.05274,-0.0176 0.123048,-0.0264 0.07471,-0.009 0.188967,-0.009 0.114258,0 0.184571,0.0132 0.07031,0.009 0.109864,0.0264 0.04395,0.0176 0.05713,0.0439 0.01758,0.0264 0.01758,0.0571 0,0.0571 -0.03076,0.11426 -0.02637,0.0571 -0.10547,0.15821 l -1.885268,2.25441 2.030289,2.69826 q 0.07471,0.11426 0.08789,0.1582 0.01758,0.0396 0.01758,0.0659 z"
         style="font-style:normal;font-variant:normal;font-weight:normal;font-stretch:normal;font-size:9.00007px;line-height:1.25;font-family:Calibri;-inkscape-font-specification:Calibri;font-variant-ligatures:normal;font-variant-caps:normal;font-variant-numeric:normal;font-feature-settings:normal;text-align:start;letter-spacing:0px;word-spacing:0px;writing-mode:lr-tb;text-anchor:start;fill:#000000;fill-opacity:1;stroke:none;stroke-width:0.264583"
         id="path1212-0" />
      <path
         d="m 61.864363,134.22455 q 0,0.17139 -0.08789,0.24611 -0.0835,0.0703 -0.193361,0.0703 h -2.592794 q 0,0.3296 0.06592,0.59327 0.06592,0.26366 0.219728,0.45264 0.15381,0.18897 0.399905,0.29004 0.246096,0.10108 0.602056,0.10108 0.281252,0 0.50098,-0.0439 0.219729,-0.0483 0.377933,-0.10546 0.162599,-0.0571 0.263674,-0.10107 0.105469,-0.0483 0.158204,-0.0483 0.03076,0 0.05274,0.0176 0.02637,0.0132 0.03955,0.0439 0.01318,0.0308 0.01758,0.0879 0.0088,0.0527 0.0088,0.13184 0,0.0571 -0.0044,0.10107 -0.0044,0.0395 -0.01318,0.0747 -0.0044,0.0308 -0.02197,0.0571 -0.01318,0.0264 -0.03955,0.0527 -0.02197,0.022 -0.140626,0.0791 -0.118653,0.0527 -0.307619,0.10547 -0.188967,0.0527 -0.439457,0.0923 -0.246096,0.044 -0.527348,0.044 -0.487797,0 -0.85694,-0.13623 -0.364749,-0.13624 -0.615239,-0.4043 -0.25049,-0.26807 -0.377933,-0.67237 -0.127442,-0.4043 -0.127442,-0.94044 0,-0.50977 0.131837,-0.91407 0.131837,-0.40869 0.377932,-0.68995 0.250491,-0.28564 0.602056,-0.43506 0.351565,-0.15381 0.786627,-0.15381 0.465824,0 0.791022,0.14942 0.329592,0.14941 0.540531,0.4043 0.210939,0.25049 0.30762,0.59326 0.101075,0.33839 0.101075,0.72511 z m -0.729498,-0.21532 q 0.01318,-0.5713 -0.254885,-0.89649 -0.263674,-0.3252 -0.786627,-0.3252 -0.268068,0 -0.470218,0.10108 -0.20215,0.10106 -0.338382,0.26805 -0.136231,0.167 -0.210939,0.39112 -0.07471,0.21973 -0.0835,0.46144 z"
         style="font-style:normal;font-variant:normal;font-weight:normal;font-stretch:normal;font-size:9.00007px;line-height:1.25;font-family:Calibri;-inkscape-font-specification:Calibri;font-variant-ligatures:normal;font-variant-caps:normal;font-variant-numeric:normal;font-feature-settings:normal;text-align:start;letter-spacing:0px;word-spacing:0px;writing-mode:lr-tb;text-anchor:start;fill:#000000;fill-opacity:1;stroke:none;stroke-width:0.264583"
         id="path1214-0" />
      <path
         d="m 64.394545,136.48336 -0.527348,1.4546 q -0.02637,0.0703 -0.136231,0.10547 -0.10547,0.0396 -0.325198,0.0396 -0.114259,0 -0.184572,-0.0132 -0.07031,-0.009 -0.109864,-0.0352 -0.03516,-0.0264 -0.03955,-0.0703 -0.0044,-0.044 0.02197,-0.10547 l 0.544926,-1.3755 q -0.03955,-0.0176 -0.07471,-0.0571 -0.03516,-0.0395 -0.04834,-0.0835 l -1.410656,-3.77933 q -0.03516,-0.0923 -0.03516,-0.14501 0,-0.0527 0.03516,-0.0835 0.03516,-0.0308 0.114259,-0.0395 0.0791,-0.0132 0.210939,-0.0132 0.131837,0 0.206544,0.009 0.07471,0.004 0.118653,0.022 0.04395,0.0176 0.06152,0.0527 0.02197,0.0308 0.04395,0.0879 l 1.129403,3.17288 h 0.01318 l 1.089853,-3.19045 q 0.02637,-0.0835 0.06152,-0.10547 0.03955,-0.0264 0.114259,-0.0352 0.07471,-0.0132 0.215333,-0.0132 0.123048,0 0.20215,0.0132 0.0791,0.009 0.114259,0.0395 0.03955,0.0308 0.03955,0.0835 0,0.0527 -0.02637,0.13183 z"
         style="font-style:normal;font-variant:normal;font-weight:normal;font-stretch:normal;font-size:9.00007px;line-height:1.25;font-family:Calibri;-inkscape-font-specification:Calibri;font-variant-ligatures:normal;font-variant-caps:normal;font-variant-numeric:normal;font-feature-settings:normal;text-align:start;letter-spacing:0px;word-spacing:0px;writing-mode:lr-tb;text-anchor:start;fill:#000000;fill-opacity:1;stroke:none;stroke-width:0.264583"
         id="path1216-5" />
      <g
         aria-label="I"
         id="text2764"
         style="font-style:normal;font-variant:normal;font-weight:normal;font-stretch:normal;font-size:9.00007px;line-height:1.25;font-family:Inconsolata, monospace;-inkscape-font-specification:'Inconsolata, monospace, Normal';font-variant-ligatures:normal;font-variant-caps:normal;font-variant-numeric:normal;font-feature-settings:normal;text-align:start;letter-spacing:0px;word-spacing:0px;writing-mode:lr-tb;text-anchor:start;fill:#000000;fill-opacity:1;stroke:none;stroke-width:0.0700042"
         transform="matrix(0.64505983,0,0,0.33223601,18.739652,87.460299)">
        <path
           d="m 41.739353,147.39622 q 0,0.062 -0.03101,0.10853 -0.03101,0.0465 -0.10852,0.0775 -0.07751,0.0233 -0.20929,0.0388 -0.124023,0.0233 -0.31781,0.0233 -0.186035,0 -0.31781,-0.0233 -0.131775,-0.0155 -0.209289,-0.0388 -0.07751,-0.031 -0.108521,-0.0775 -0.03101,-0.0465 -0.03101,-0.10853 v -9.62731 q 0,-0.062 0.03101,-0.10852 0.03876,-0.0465 0.116272,-0.0698 0.08527,-0.031 0.20929,-0.0465 0.131775,-0.0232 0.310058,-0.0232 0.193787,0 0.31781,0.0232 0.131775,0.0155 0.20929,0.0465 0.07751,0.0233 0.10852,0.0698 0.03101,0.0465 0.03101,0.10852 z"
           style="font-style:normal;font-variant:normal;font-weight:normal;font-stretch:normal;font-size:15.875px;font-family:Calibri;-inkscape-font-specification:Calibri;stroke-width:0.0700042"
           id="path2766" />
      </g>
      <rect
         id="rect38-0-9"
         width="1.5927517"
         height="1.5927517"
         x="44.478489"
         y="130.89455"
         style="font-style:normal;font-variant:normal;font-weight:normal;font-stretch:normal;font-size:15.875px;line-height:1.25;font-family:Inconsolata, monospace;-inkscape-font-specification:'Inconsolata, monospace, Normal';font-variant-ligatures:normal;font-variant-caps:normal;font-variant-numeric:normal;font-feature-settings:normal;text-align:start;letter-spacing:0px;word-spacing:0px;writing-mode:lr-tb;text-anchor:start;fill:#000000;fill-opacity:0;stroke:#000000;stroke-width:0.259258;stroke-miterlimit:4;stroke-dasharray:none;stroke-opacity:1"
         rx="0.30437082"
         ry="0.30437082"
         inkscape:export-xdpi="483.16263"
         inkscape:export-ydpi="483.16263" />
      <rect
         style="font-style:normal;font-variant:normal;font-weight:normal;font-stretch:normal;font-size:9.00007px;line-height:1.25;font-family:Inconsolata, monospace;-inkscape-font-specification:'Inconsolata, monospace, Normal';font-variant-ligatures:normal;font-variant-caps:normal;font-variant-numeric:normal;font-feature-settings:normal;text-align:start;letter-spacing:0px;word-spacing:0px;writing-mode:lr-tb;text-anchor:start;fill:#000000;fill-opacity:0;stroke:#000000;stroke-width:0.125;stroke-miterlimit:4;stroke-dasharray:none;stroke-opacity:1"
         id="rect2778-1"
         width="0.67987055"
         height="0.028335571"
         x="44.950459"
         y="131.39124" />
      <rect
         style="font-style:normal;font-variant:normal;font-weight:normal;font-stretch:normal;font-size:9.00007px;line-height:1.25;font-family:Inconsolata, monospace;-inkscape-font-specification:'Inconsolata, monospace, Normal';font-variant-ligatures:normal;font-variant-caps:normal;font-variant-numeric:normal;font-feature-settings:normal;text-align:start;letter-spacing:0px;word-spacing:0px;writing-mode:lr-tb;text-anchor:start;fill:#000000;fill-opacity:0;stroke:#000000;stroke-width:0.125;stroke-miterlimit:4;stroke-dasharray:none;stroke-opacity:1"
         id="rect2778-9-9"
         width="0.67987055"
         height="0.028335571"
         x="44.931194"
         y="131.96339" />
    </g>
    <text
       xml:space="preserve"
       id="text1221"
       style="font-style:normal;font-variant:normal;font-weight:normal;font-stretch:normal;font-size:9.00007px;line-height:1.25;font-family:Inconsolata, monospace;-inkscape-font-specification:'Inconsolata, monospace, Normal';font-variant-ligatures:normal;font-variant-caps:normal;font-variant-numeric:normal;font-feature-settings:normal;text-align:start;letter-spacing:0px;word-spacing:0px;writing-mode:lr-tb;white-space:pre;shape-inside:url(#rect1223);fill:#000000;fill-opacity:1;stroke:none;" />
  </g>
</svg>
