<?xml version="1.0" encoding="UTF-8" standalone="no"?>
<!-- Created with Inkscape (http://www.inkscape.org/) -->

<svg
   xmlns:dc="http://purl.org/dc/elements/1.1/"
   xmlns:cc="http://creativecommons.org/ns#"
   xmlns:rdf="http://www.w3.org/1999/02/22-rdf-syntax-ns#"
   xmlns:svg="http://www.w3.org/2000/svg"
   xmlns="http://www.w3.org/2000/svg"
   xmlns:sodipodi="http://sodipodi.sourceforge.net/DTD/sodipodi-0.dtd"
   xmlns:inkscape="http://www.inkscape.org/namespaces/inkscape"
   sodipodi:docname="logo.svg"
   inkscape:version="0.92.4 (5da689c313, 2019-01-14)"
   id="svg8"
   version="1.1"
   viewBox="0 0 40.10091 6.9246416"
   height="6.9246416mm"
   width="40.10091mm">
  <defs
     id="defs2" />
  <sodipodi:namedview
     id="base"
     pagecolor="#ffffff"
     bordercolor="#666666"
     borderopacity="1.0"
     inkscape:pageopacity="0.0"
     inkscape:pageshadow="2"
     inkscape:zoom="2"
     inkscape:cx="187.86988"
     inkscape:cy="-75.396676"
     inkscape:document-units="mm"
     inkscape:current-layer="text12"
     showgrid="false"
     inkscape:window-width="1821"
     inkscape:window-height="1255"
     inkscape:window-x="266"
     inkscape:window-y="266"
     inkscape:window-maximized="0" />
  <metadata
     id="metadata5">
    <rdf:RDF>
      <cc:Work
         rdf:about="">
        <dc:format>image/svg+xml</dc:format>
        <dc:type
           rdf:resource="http://purl.org/dc/dcmitype/StillImage" />
        <dc:title></dc:title>
      </cc:Work>
    </rdf:RDF>
  </metadata>
  <g
     inkscape:label="Layer 1"
     inkscape:groupmode="layer"
     id="layer1"
     transform="translate(-1.1534175,-0.74004671)">
    <g
       aria-label="DICEKEYS"
       style="font-style:normal;font-weight:normal;font-size:10.58333302px;line-height:1.25;font-family:sans-serif;letter-spacing:0px;word-spacing:0px;fill:#000000;fill-opacity:1;stroke:none;stroke-width:0.26458332"
       id="text12">
      <path
         d="m 6.2952224,4.1041823 q 0,0.8681641 -0.2222087,1.5192871 Q 5.8508051,6.2694248 5.4218907,6.6983392 4.998144,7.1220859 4.3780268,7.3339593 3.7579096,7.5458326 2.9000809,7.5458326 H 1.4841467 q -0.1188558,0 -0.2273763,-0.077515 Q 1.1534175,7.3856357 1.1534175,7.1840976 V 1.2206375 q 0,-0.2015381 0.1033529,-0.27905271 0.1085205,-0.0826823 0.2273763,-0.0826823 h 1.5141194 q 0.868164,0 1.4676106,0.2273763 0.5994466,0.2222086 1.0025228,0.6459554 0.4082438,0.4185791 0.6149495,1.0180257 0.2118734,0.5994466 0.2118734,1.3539224 z M 5.359879,4.1403558 q 0,-0.5426025 -0.1343587,-1.0076904 Q 5.0911615,2.6624099 4.8017735,2.3213455 4.5175532,1.980281 4.0783035,1.7890782 3.6390538,1.5978755 2.9465897,1.5978755 H 2.0422521 V 6.801692 h 0.9146728 q 0.6407878,0 1.0800374,-0.1601969 Q 4.476212,6.4812982 4.7707677,6.150569 5.0653233,5.8198398 5.2100173,5.3237461 5.359879,4.8224847 5.359879,4.1403558 Z"
         style="font-style:normal;font-variant:normal;font-weight:normal;font-stretch:normal;font-family:Calibri;-inkscape-font-specification:Calibri;stroke-width:0.26458332"
         id="path108" />
      <path
         d="m 8.5534826,7.4114739 q 0,0.041341 -0.020671,0.072347 -0.020671,0.031006 -0.072347,0.051676 -0.051676,0.015503 -0.1395263,0.025838 -0.082682,0.015503 -0.2118734,0.015503 -0.1240234,0 -0.2118734,-0.015503 Q 7.809342,7.5510003 7.7576656,7.5354973 7.7059891,7.5148268 7.6853186,7.4838209 7.664648,7.4528151 7.664648,7.4114739 V 0.99326122 q 0,-0.0413411 0.020671,-0.072347 0.025838,-0.0310059 0.077515,-0.0465088 0.056844,-0.0206706 0.1395264,-0.0310059 0.08785,-0.0155029 0.2067057,-0.0155029 0.1291911,0 0.2118734,0.0155029 0.08785,0.0103353 0.1395263,0.0310059 0.051676,0.0155029 0.072347,0.0465088 0.020671,0.0310059 0.020671,0.072347 z"
         style="font-style:normal;font-variant:normal;font-weight:normal;font-stretch:normal;font-family:Calibri;-inkscape-font-specification:Calibri;stroke-width:0.26458332"
         id="path110" />
      <path
         d="m 14.795996,6.600154 q 0,0.082682 -0.0052,0.144694 -0.0052,0.062012 -0.02067,0.1085205 -0.01033,0.046509 -0.03101,0.082682 -0.02067,0.036173 -0.07235,0.08785 -0.05168,0.051676 -0.217041,0.1601969 -0.165364,0.1033529 -0.413411,0.2067057 -0.242879,0.098185 -0.563273,0.1653646 -0.315226,0.072347 -0.692464,0.072347 -0.651123,0 -1.178223,-0.217041 Q 11.08046,7.1944329 10.70839,6.7706862 10.341487,6.3469394 10.139949,5.7268223 9.9435787,5.1015375 9.9435787,4.2902175 q 0,-0.8319905 0.2118733,-1.4831136 0.217041,-0.651123 0.604614,-1.1007079 0.387573,-0.4547526 0.925008,-0.6924642 0.542603,-0.23771159 1.198894,-0.23771159 0.289388,0 0.563273,0.0568441 0.273885,0.0516764 0.506429,0.13435872 0.232544,0.0826823 0.413411,0.1912028 0.180868,0.1085205 0.248047,0.1808675 0.07235,0.067179 0.09302,0.1033529 0.02067,0.036174 0.03101,0.08785 0.0155,0.046509 0.02067,0.1136881 0.01033,0.067179 0.01033,0.160197 0,0.1033528 -0.01033,0.1756998 -0.01033,0.072347 -0.03101,0.1240235 -0.02067,0.046509 -0.05168,0.072347 -0.02584,0.020671 -0.06718,0.020671 -0.07235,0 -0.201538,-0.098185 Q 14.279231,1.995784 14.072525,1.8769282 13.870987,1.7529047 13.576432,1.6547195 13.287044,1.5513667 12.8788,1.5513667 q -0.444417,0 -0.81132,0.1808675 -0.361735,0.1756998 -0.620117,0.5219319 -0.258382,0.3462321 -0.403076,0.8474935 -0.139527,0.4960937 -0.139527,1.1368815 0,0.6356201 0.134359,1.1265462 0.139526,0.4857584 0.392741,0.8164876 0.258382,0.3255615 0.630452,0.4960937 0.372071,0.1653646 0.842326,0.1653646 0.397909,0 0.692464,-0.098185 0.299724,-0.098185 0.506429,-0.2170411 0.211874,-0.1240234 0.346232,-0.2222086 0.134359,-0.098185 0.211874,-0.098185 0.03617,0 0.06201,0.015503 0.02584,0.015503 0.04134,0.062012 0.0155,0.041341 0.02067,0.1188558 0.01034,0.077515 0.01034,0.1963705 z"
         style="font-style:normal;font-variant:normal;font-weight:normal;font-stretch:normal;font-family:Calibri;-inkscape-font-specification:Calibri;stroke-width:0.26458332"
         id="path112" />
      <path
         d="m 19.694921,7.17893 q 0,0.093018 -0.01034,0.1653646 -0.01033,0.067179 -0.03617,0.1136881 -0.02584,0.046509 -0.06201,0.067179 -0.03101,0.02067 -0.07235,0.02067 h -3.209107 q -0.118855,0 -0.227376,-0.077515 -0.103353,-0.082682 -0.103353,-0.2842204 V 1.2206375 q 0,-0.2015381 0.103353,-0.27905271 0.108521,-0.0826823 0.227376,-0.0826823 h 3.172933 q 0.04134,0 0.07235,0.0206706 0.03617,0.0206706 0.05684,0.0671794 0.02067,0.0465088 0.03101,0.11885577 0.0155,0.067179 0.0155,0.1705322 0,0.093018 -0.0155,0.1653646 -0.01033,0.067179 -0.03101,0.1136882 -0.02067,0.041341 -0.05684,0.062012 -0.03101,0.020671 -0.07235,0.020671 h -2.614827 v 2.098063 h 2.242757 q 0.04134,0 0.07235,0.025838 0.03617,0.02067 0.05684,0.062012 0.02584,0.041341 0.03617,0.1136881 0.01034,0.072347 0.01034,0.1705322 0,0.093018 -0.01034,0.160197 -0.01034,0.067179 -0.03617,0.1085205 -0.02067,0.041341 -0.05684,0.062012 -0.03101,0.015503 -0.07235,0.015503 h -2.242757 v 2.3926188 h 2.651001 q 0.04134,0 0.07235,0.02067 0.03617,0.020671 0.06201,0.067179 0.02584,0.041341 0.03617,0.1136882 0.01034,0.067179 0.01034,0.1705322 z"
         style="font-style:normal;font-variant:normal;font-weight:normal;font-stretch:normal;font-family:Calibri;-inkscape-font-specification:Calibri;stroke-width:0.26458332"
         id="path114" />
      <path
         d="m 25.865087,7.3442946 q 0,0.056844 -0.03101,0.1033528 -0.02584,0.041341 -0.108521,0.072347 -0.07751,0.025838 -0.217041,0.041341 -0.139526,0.015503 -0.351399,0.015503 -0.335897,0 -0.485759,-0.025838 -0.144694,-0.025838 -0.211873,-0.077515 -0.06201,-0.051676 -0.09819,-0.1240234 L 22.340754,4.1765293 v 3.1729329 q 0,0.056844 -0.03101,0.098185 -0.03101,0.041341 -0.10852,0.072347 -0.07752,0.025838 -0.206706,0.041341 -0.129191,0.015503 -0.330729,0.015503 -0.196371,0 -0.330729,-0.015503 -0.129191,-0.015503 -0.206706,-0.041341 -0.07751,-0.031006 -0.113688,-0.072347 -0.03101,-0.041341 -0.03101,-0.098185 V 1.0501053 q 0,-0.0568441 0.03101,-0.0981852 0.03617,-0.0413411 0.113688,-0.0671794 0.07752,-0.0258382 0.206706,-0.0413411 0.134358,-0.0155029 0.330729,-0.0155029 0.201538,0 0.330729,0.0155029 0.129191,0.0155029 0.206706,0.0413411 0.07751,0.0258382 0.10852,0.0671794 0.03101,0.0413411 0.03101,0.0981852 v 2.8473713 l 1.958537,-2.8422037 q 0.03617,-0.0671793 0.08785,-0.10852047 0.05168,-0.0465088 0.134358,-0.072347 0.08268,-0.0258382 0.211874,-0.0361735 0.129191,-0.0103353 0.330729,-0.0103353 0.206706,0 0.341064,0.0155029 0.134359,0.0155029 0.211874,0.0465088 0.08268,0.0258382 0.113688,0.0671794 0.03101,0.0413411 0.03101,0.0930176 0,0.08785 -0.04651,0.1808675 -0.04651,0.093018 -0.1757,0.2945557 l -1.834513,2.402954 1.999878,3.0230712 q 0.113688,0.2118733 0.134358,0.2842203 0.02584,0.067179 0.02584,0.1085206 z"
         style="font-weight:bold"
         id="path116" />
      <path
         d="m 30.733006,7.0135654 q 0,0.1498616 -0.0155,0.2532145 -0.01034,0.098185 -0.03617,0.1601969 -0.02584,0.062012 -0.06718,0.093018 -0.03617,0.025838 -0.08268,0.025838 H 27.1725 q -0.170532,0 -0.289388,-0.098185 Q 26.769424,7.3442946 26.769424,7.1169183 V 1.2878169 q 0,-0.2273763 0.113688,-0.32556154 Q 27.001968,0.8589025 27.1725,0.8589025 h 3.338297 q 0.04651,0 0.08268,0.0258382 0.03617,0.0258382 0.06201,0.0930176 0.02584,0.0620117 0.03617,0.16536461 0.0155,0.098185 0.0155,0.2532145 0,0.144694 -0.0155,0.2480468 -0.01034,0.098185 -0.03617,0.160197 -0.02584,0.062012 -0.06201,0.093018 -0.03617,0.025838 -0.08268,0.025838 h -2.387451 v 1.6329752 h 2.020549 q 0.04651,0 0.08268,0.031006 0.04134,0.025838 0.06718,0.08785 0.02584,0.056844 0.03617,0.1601969 0.0155,0.098185 0.0155,0.2428792 0,0.1498617 -0.0155,0.2480469 -0.01034,0.098185 -0.03617,0.1601969 -0.02584,0.056844 -0.06718,0.082682 -0.03617,0.025838 -0.08268,0.025838 h -2.020549 v 1.8861898 h 2.408122 q 0.04651,0 0.08268,0.031006 0.04134,0.025838 0.06718,0.08785 0.02584,0.062012 0.03617,0.1653645 0.0155,0.098185 0.0155,0.2480469 z"
         style="font-weight:bold"
         id="path118" />
      <path
         d="m 34.639746,5.0085199 v 2.3512776 q 0,0.051676 -0.03617,0.093018 -0.03101,0.041341 -0.10852,0.067179 -0.07751,0.025838 -0.211874,0.041341 -0.129191,0.015503 -0.325561,0.015503 -0.201538,0 -0.330729,-0.015503 -0.129192,-0.015503 -0.211874,-0.041341 -0.07751,-0.025838 -0.10852,-0.067179 -0.03101,-0.041341 -0.03101,-0.093018 V 5.0085199 L 31.446142,1.3653315 q -0.09818,-0.1912028 -0.129191,-0.2945556 -0.02584,-0.10852054 0.03101,-0.16019697 0.06201,-0.0568441 0.222209,-0.0671794 0.160197,-0.0155029 0.444417,-0.0155029 0.237711,0 0.377238,0.0103353 0.144694,0.0103353 0.227376,0.0413411 0.08268,0.0258382 0.118856,0.072347 0.04134,0.0465088 0.07751,0.11885583 l 0.74414,1.6433105 q 0.108521,0.2377115 0.211874,0.5012613 0.10852,0.2635498 0.217041,0.5529378 h 0.01034 q 0.09819,-0.2790527 0.201538,-0.5426025 0.103353,-0.2635498 0.201538,-0.5012614 l 0.733805,-1.6329752 q 0.02584,-0.082682 0.06201,-0.12919104 0.04134,-0.0516764 0.118856,-0.0826823 0.07751,-0.0310059 0.211873,-0.0413411 0.134359,-0.0103353 0.356568,-0.0103353 0.294555,0 0.454752,0.0155029 0.165365,0.0103353 0.222209,0.0671794 0.06201,0.0516764 0.03101,0.16019697 -0.03101,0.1085205 -0.124024,0.2945556 z"
         style="font-weight:bold"
         id="path120" />
      <path
         d="m 41.254326,5.5407871 q 0,0.5270996 -0.19637,0.9250081 -0.196371,0.3979085 -0.532267,0.666626 -0.335897,0.2635498 -0.785482,0.3979085 -0.449585,0.1343587 -0.961182,0.1343587 -0.346232,0 -0.645955,-0.056844 -0.294556,-0.056844 -0.521932,-0.1343588 -0.227376,-0.082682 -0.382406,-0.1705322 -0.149861,-0.08785 -0.217041,-0.1550293 -0.06718,-0.067179 -0.09819,-0.1912028 -0.02584,-0.1291911 -0.02584,-0.3669026 0,-0.160197 0.01034,-0.2687175 0.01033,-0.1085205 0.03101,-0.1756998 0.02584,-0.067179 0.06201,-0.093018 0.04134,-0.031006 0.09302,-0.031006 0.07235,0 0.201538,0.08785 0.134359,0.082682 0.341065,0.1860351 0.206706,0.1033529 0.490926,0.1912028 0.289388,0.082682 0.666626,0.082682 0.248047,0 0.444417,-0.056844 0.196371,-0.062012 0.330729,-0.1705322 0.139527,-0.1085205 0.211874,-0.2687174 0.07235,-0.160197 0.07235,-0.3565674 0,-0.2273763 -0.124024,-0.3875732 Q 39.595513,5.1635492 39.393975,5.0395257 39.197604,4.9103347 38.94439,4.8018142 38.691175,4.688126 38.422458,4.5641026 38.15374,4.4400791 37.900526,4.2850499 37.647311,4.1248529 37.445773,3.9078119 37.249403,3.6856033 37.125379,3.38588 37.001356,3.0861567 37.001356,2.6675776 q 0,-0.4805908 0.1757,-0.8423258 0.180867,-0.3669027 0.480591,-0.6046143 0.304891,-0.24287921 0.713134,-0.361735 0.413412,-0.11885579 0.873332,-0.11885579 0.237712,0 0.475423,0.0361735 0.237712,0.0361735 0.444418,0.0981852 0.206705,0.0620117 0.366902,0.13952637 0.160197,0.077515 0.211874,0.1291911 0.05168,0.051676 0.06718,0.08785 0.02067,0.036174 0.03101,0.098185 0.0155,0.056844 0.02067,0.1498617 0.0052,0.08785 0.0052,0.2222086 0,0.1498617 -0.01034,0.2532145 -0.0052,0.1033529 -0.02584,0.1705322 -0.0155,0.067179 -0.05168,0.098185 -0.03101,0.031006 -0.08785,0.031006 -0.05684,0 -0.180867,-0.072347 -0.124024,-0.072347 -0.304891,-0.1550293 -0.180868,-0.08785 -0.418579,-0.1550293 -0.237712,-0.072347 -0.521932,-0.072347 -0.222209,0 -0.387574,0.056844 -0.165364,0.051676 -0.279052,0.1498617 -0.108521,0.093018 -0.165365,0.2273763 -0.05168,0.1343587 -0.05168,0.2842203 0,0.2222087 0.118856,0.3875733 0.124023,0.1601969 0.325561,0.289388 0.206706,0.1240234 0.465088,0.2377115 0.258382,0.1085206 0.5271,0.232544 0.268717,0.1240234 0.527099,0.2842204 0.258382,0.1550292 0.45992,0.3772379 0.201538,0.217041 0.325562,0.5167643 0.124023,0.2945557 0.124023,0.6976318 z"
         style="font-weight:bold"
         id="path122" />
    </g>
    <flowRoot
       xml:space="preserve"
       id="flowRoot100"
       style="font-style:normal;font-weight:normal;font-size:40px;line-height:1.25;font-family:sans-serif;letter-spacing:0px;word-spacing:0px;fill:#000000;fill-opacity:1;stroke:none"
       transform="scale(0.26458333)"><flowRegion
         id="flowRegion102"><rect
           id="rect104"
           width="26.5"
           height="54.5"
           x="22"
           y="12.519653" /></flowRegion><flowPara
         id="flowPara106"></flowPara></flowRoot>  </g>
</svg>
