<svg width="408" height="252" viewBox="0 0 408 252" fill="none" xmlns="http://www.w3.org/2000/svg">
<path d="M14.358 127.211L13.1811 125.964C11.5719 122.772 12.1483 119.197 11.9322 115.862C11.4278 108.255 11.0195 100.601 10.7072 92.9707C11.716 91.483 13.109 92.2269 14.2859 92.4908C27.8563 95.5142 41.4026 98.7535 54.973 101.849C57.1347 102.329 58.936 103.192 59.0801 105.76C59.0801 107.56 60.5453 108.159 61.9383 108.423C65.9335 109.226 69.792 110.6 73.3951 112.502C80.6124 115.595 88.1892 117.771 95.9483 118.981C97.7977 119.317 99.5991 119.125 99.8873 116.414C100.248 112.958 100.896 112.55 104.355 113.366L133.297 120.061C145.306 122.868 157.315 125.484 169.324 128.411C173.263 129.371 173.576 129.875 173.648 134.026C173.816 142.952 173.335 151.902 173.912 160.828C174.08 163.227 172.567 163.563 170.693 163.227C165.145 162.172 159.597 161.044 154.145 159.58C147.636 157.853 140.983 156.749 134.426 155.261C115.691 150.942 97.0291 146.455 78.2708 142.352C59.5125 138.249 41.4267 134.17 23.0286 129.947C20.0503 129.155 16.8079 129.371 14.358 127.211Z" fill="#989FC9"/>
<path d="M14.3579 127.212L43.3961 133.81L115.235 150.175C125.947 152.574 136.659 155.141 147.444 157.373C155.298 158.933 163.031 160.996 170.837 162.676C172.014 162.916 173.239 163.228 173.023 161.14C172.254 151.686 172.735 142.184 172.687 132.73C172.687 130.475 171.702 129.851 169.781 129.395C151.262 125.196 132.768 120.901 114.25 116.63C110.503 115.766 106.708 115.094 103.034 114.014C100.92 113.391 100.632 114.014 100.632 115.886C100.632 116.942 101.737 118.285 100.632 119.005C99.413 119.916 97.8927 120.327 96.3806 120.157C88.2713 118.84 80.341 116.593 72.7465 113.463C69.0553 111.633 65.1727 110.216 61.1697 109.239C60.7358 109.225 60.31 109.118 59.9212 108.926C59.5324 108.733 59.1897 108.459 58.9163 108.122C58.6429 107.785 58.4453 107.393 58.3368 106.973C58.2283 106.553 58.2115 106.115 58.2875 105.688C58.2875 104.033 57.7351 103.577 56.1258 103.289C41.0904 99.6415 26.1509 96.1143 11.1875 92.587C10.3949 93.0189 10.1307 92.1071 9.55427 91.9632C7.65682 91.6512 5.73535 91.3873 3.8379 91.0034C3.46498 90.9674 3.1029 90.858 2.77258 90.6814C2.44227 90.5047 2.15029 90.2644 1.91353 89.9743C1.67678 89.6843 1.49994 89.3502 1.39325 88.9914C1.28656 88.6326 1.25213 88.2562 1.29196 87.8841C1.39289 87.1301 1.34392 86.3636 1.14785 85.6285C0.643468 84.6208 -0.653524 83.9009 0.403283 82.5572C0.874448 82.0325 1.44736 81.6088 2.08729 81.3118C2.72722 81.0149 3.42084 80.8508 4.12613 80.8296C18.5371 78.862 33.1403 77.0384 47.5993 74.8789C64.0759 72.4794 80.5044 69.696 96.957 67.1525C110.143 65.113 123.377 63.2414 136.491 61.1778C149.605 59.1143 162.647 56.8348 175.857 54.7712C186.257 53.1396 196.705 51.6759 207.081 49.9723C215.992 48.6046 224.879 47.0689 233.789 45.6532C234.963 45.5449 236.142 45.4968 237.32 45.5092C237.32 46.709 236.407 46.9969 235.591 47.4048C225.984 49.4684 216.04 50.6441 206.264 52.2038C149.821 61.1778 93.3543 70.0719 36.8631 78.886C30.21 79.9418 23.5329 81.0455 16.8558 81.9573C14.44 82.4214 11.9625 82.4701 9.53025 82.1013C16.0632 82.7252 23.3888 85.1007 30.8826 86.6603C45.1494 89.6357 59.3923 92.851 73.5872 96.2582C105.7 103.865 137.932 110.943 170.069 118.453C171.145 118.599 172.178 118.976 173.095 119.557C173.389 119.774 173.621 120.063 173.768 120.397C174.106 121.377 174.173 122.43 173.96 123.444C173.776 124.234 173.776 125.054 173.96 125.844C174.087 126.261 174.099 126.704 173.993 127.127C173.887 127.55 173.668 127.936 173.359 128.243C173.193 128.293 173.018 128.303 172.847 128.274C172.677 128.245 172.515 128.177 172.375 128.075C170.784 126.425 168.704 125.332 166.442 124.956C146.026 120.157 125.651 115.366 105.315 110.583C104.403 110.367 103.442 109.887 102.337 110.583C103.106 111.903 104.499 111.879 105.676 112.167C126.452 116.966 147.203 121.981 168.123 126.564C169.73 126.863 171.284 127.396 172.735 128.147C173.111 128.177 173.47 128.316 173.768 128.546C174.067 128.776 174.292 129.088 174.416 129.443C174.856 131.913 175.057 134.42 175.017 136.929C175.017 143.792 175.017 150.654 175.017 157.517C175.017 161.38 175.377 161.668 179.196 161.092C213.542 155.909 247.888 150.774 282.234 145.688C314.003 140.889 345.771 136.146 377.539 131.459L379.797 131.123C386.57 130.043 386.738 129.827 387.002 122.82C387.267 115.814 386.474 108.232 387.531 100.961C387.586 99.9852 387.814 99.0265 388.203 98.1298C388.24 98.0405 388.294 97.9596 388.363 97.8923C388.432 97.8251 388.514 97.7729 388.605 97.739C388.695 97.7052 388.791 97.6905 388.888 97.6958C388.984 97.7011 389.078 97.7263 389.164 97.7699C389.452 105.76 389.404 113.75 389.164 121.765C389.164 124.476 388.78 127.212 388.78 129.923C388.78 131.507 388.347 132.322 386.666 132.49C370.766 134.89 354.842 137.289 338.942 139.689C325.011 141.728 311.104 143.648 297.174 145.664C296.087 145.895 295.019 146.208 293.979 146.599L338.678 157.373C340.515 157.621 342.38 157.179 343.91 156.133C345.441 155.087 346.529 153.511 346.964 151.71C347.468 150.079 347.925 149.527 349.678 149.599C352.608 149.599 353.377 148.207 352.08 145.568C351.821 145.068 351.703 144.507 351.737 143.945C351.771 143.383 351.957 142.841 352.274 142.376C352.592 141.912 353.03 141.541 353.541 141.305C354.052 141.068 354.618 140.974 355.178 141.033C358.038 141.415 360.865 142.017 363.633 142.832C366.323 143.648 367.548 147.391 366.611 150.798C365.499 154.18 363.481 157.193 360.774 159.509C360.03 160.228 359.237 160.924 358.373 161.908C363.008 162.364 366.275 160.444 367.404 156.221C367.86 154.518 368.436 154.326 369.805 154.326C372.832 154.326 373.672 152.934 372.447 150.367C372.093 149.87 371.889 149.283 371.861 148.674C371.832 148.065 371.98 147.46 372.287 146.933C372.594 146.407 373.047 145.979 373.59 145.703C374.134 145.427 374.747 145.313 375.354 145.376C378.303 145.78 381.212 146.438 384.048 147.343C386.666 148.183 387.843 151.782 386.93 155.045L385.85 158.693C384.651 161.242 382.845 163.458 380.59 165.147C381.858 164.476 382.974 163.55 383.867 162.426C384.76 161.303 385.411 160.007 385.777 158.621C386.738 158.621 387.723 158.621 388.708 158.621C390.989 158.453 392.142 156.797 390.917 154.973C390.482 154.409 390.262 153.707 390.297 152.995C390.332 152.282 390.62 151.606 391.11 151.086C392.094 149.623 393.511 149.815 394.856 150.079C397.258 150.534 399.468 150.942 401.75 151.518C404.608 152.262 406.217 156.029 405.28 159.557C404.007 164.355 400.477 167.379 396.994 170.69C398.387 171.074 399.18 171.29 399.252 173.09C399.564 181.128 400.261 189.142 400.237 197.084C400.136 200.349 400.313 203.616 400.765 206.85C400.94 207.969 400.861 209.114 400.532 210.198C400.204 211.282 399.635 212.279 398.868 213.113C397.146 215.179 395.015 216.868 392.61 218.073C390.205 219.279 387.576 219.975 384.889 220.119C378.164 220.575 371.487 221.871 364.785 222.855C356.715 224.031 348.669 225.254 340.623 226.502C332.577 227.75 324.291 229.045 316.124 230.269C307.958 231.493 300.176 232.525 292.106 233.724C284.036 234.924 275.99 236.124 267.944 237.42C259.897 238.715 252.019 239.819 243.925 240.923C235.831 242.027 227.617 243.49 219.451 244.738C211.909 245.89 204.367 246.97 196.825 248.097C189.283 249.225 181.934 250.137 174.536 251.433C170.669 252.104 167.331 250.617 163.704 249.873C141.367 245.074 119.078 240.011 96.7889 234.972C77.9825 230.869 58.936 226.478 39.8894 222.159C39.4602 222.086 39.0272 222.038 38.5924 222.015C38.4723 221.103 38.9527 220.647 39.7934 220.479C48.2984 221.808 56.7314 223.562 65.0606 225.734C99.1186 233.269 133.153 240.875 167.163 248.553L169.42 249.009C170.885 249.345 171.246 248.769 171.246 247.305C171.246 234.324 170.165 221.391 170.429 208.434C170.429 205.459 168.964 204.523 166.394 203.971C147.756 199.892 129.021 195.765 110.479 191.758C76.4934 184.415 42.5555 176.881 8.56952 169.61C7.1044 169.298 5.61526 168.579 4.2222 169.802C4.00847 169.966 3.74679 170.054 3.47763 170.054C3.20846 170.054 2.94679 169.966 2.73306 169.802C2.06055 167.043 3.0453 166.059 5.95152 165.771C12.7967 165.099 19.5939 163.972 26.4151 162.988L46.8067 159.988L72.6504 156.245L97.2692 152.79L112.785 150.582L19.5699 129.875C17.7926 129.467 16.0152 129.059 14.3099 128.507C13.2291 128.147 13.7335 127.595 14.3579 127.212Z" fill="#030303"/>
<path d="M236.071 46.7085L237.368 45.6048C238.521 45.9167 239.77 47.0444 240.731 45.3888C243.589 40.7098 247.936 40.3739 252.62 41.6216C254.781 42.1735 256.943 42.8453 259.105 43.4212C261.266 43.9971 262.515 44.9089 260.45 47.1164C259.51 48.2134 258.628 49.3587 257.808 50.5477C258.324 50.7727 258.907 50.7965 259.44 50.6145C259.973 50.4324 260.419 50.0577 260.69 49.5639C261.664 47.9287 263.175 46.6813 264.966 46.0338C266.757 45.3863 268.718 45.3789 270.513 46.0127C273.131 46.7805 276.35 46.6365 278.512 48.1002C280.873 49.4804 283.635 50.0137 286.342 49.6119C289.861 49.8987 293.33 50.6242 296.669 51.7714C299.888 52.6352 300.056 53.4031 298.087 56.0905C297.39 57.0503 296.573 57.9381 295.685 58.8979C297.198 60.2416 299.528 59.4737 301.113 60.9854L298.255 62.929C307.862 65.3285 317.469 67.392 326.764 69.9355C328.379 70.3172 330.075 70.1307 331.568 69.4076C332.552 68.8901 333.637 68.5901 334.747 68.528C335.858 68.4659 336.969 68.6431 338.005 69.0477C338.538 69.3351 339.124 69.5136 339.727 69.5725C340.33 69.6315 340.939 69.5698 341.518 69.3911C342.097 69.2124 342.635 68.9203 343.1 68.5317C343.565 68.1432 343.947 67.666 344.226 67.1281C346.82 63.5289 350.663 64.3207 354.289 65.1605C356.691 65.6884 358.829 66.4802 361.111 67.0561C363.392 67.632 364.089 68.5438 362.384 70.5593C361.471 71.5911 360.75 72.7908 359.982 73.9426C360.846 74.3745 361.639 74.5665 362.119 73.7746C365.266 68.3518 370.045 68.4478 375.089 70.1034C377.923 71.0632 381.742 70.1034 383.28 73.9906C383.409 74.046 383.547 74.0746 383.688 74.0746C383.828 74.0746 383.967 74.046 384.096 73.9906C389.26 71.4711 393.896 74.5425 398.723 75.3583C401.533 75.8622 402.134 77.2539 400.068 79.4854C399.204 80.4212 398.459 81.477 397.667 82.6047C400.309 83.1566 402.782 83.6125 405.232 84.2124C407.682 84.8122 408.739 87.2837 407.442 90.0191C406.961 89.7285 406.577 89.3029 406.337 88.7954C404.968 87.3557 403.311 87.8596 401.726 88.0995C379.076 91.3148 356.451 94.7941 333.826 98.1054C299.768 103.072 265.71 108.183 231.652 113.174C213.462 115.862 195.264 118.597 177.058 121.38C176.433 121.58 175.77 121.634 175.121 121.539C174.471 121.443 173.852 121.2 173.311 120.828V120.133C173.96 118.045 175.881 118.357 177.346 118.141C192.55 115.981 207.73 113.63 222.981 111.398C257.592 106.336 292.202 101.153 326.788 96.0658C349.966 92.6345 373.144 89.1073 396.442 85.844C397.516 85.7181 398.582 85.5338 399.636 85.2921C396.759 84.5474 393.793 84.2002 390.821 84.2604C386.236 84.5244 381.688 83.3042 377.851 80.7811C376.719 80.1251 375.378 79.9276 374.105 80.2292C368.7 80.4692 363.512 79.9413 359.069 76.3421C357.754 75.5385 356.177 75.2802 354.674 75.6222C349.361 76.2997 343.986 74.9829 339.59 71.927C338.676 71.3046 337.618 70.927 336.516 70.8304C335.414 70.7338 334.306 70.9213 333.297 71.3752C330.079 72.4542 326.596 72.4542 323.378 71.3752C314.659 68.9757 305.82 67.0801 296.958 64.9685C295.517 64.6326 293.571 64.8246 294.556 61.9692C294.964 60.7215 292.754 60.7935 291.794 60.8654C287.649 61.0632 283.502 60.5271 279.544 59.2818C278.457 59.1407 277.429 58.7097 276.566 58.0341C275.919 57.4645 275.148 57.0548 274.313 56.8381C273.479 56.6214 272.605 56.6036 271.762 56.7863C266.675 57.3039 261.569 56.0031 257.351 53.1151C256.611 52.6422 255.782 52.324 254.916 52.1797C254.049 52.0353 253.162 52.0679 252.308 52.2753C248.032 52.8992 244.117 51.3155 240.13 50.2597C238.185 49.6599 237.344 47.8603 236.071 46.7085Z" fill="#030303"/>
<path d="M407.418 88.6512V90.0429C405.701 91.0195 403.699 91.3754 401.75 91.0507C398.291 91.0507 397.931 92.6343 398.123 95.2257C398.013 95.3206 397.885 95.3927 397.746 95.438C397.608 95.4833 397.462 95.5009 397.317 95.4898C397.172 95.4786 397.031 95.4389 396.901 95.373C396.772 95.3072 396.656 95.2163 396.562 95.1058C395.577 93.1142 393.896 93.2342 392.07 93.5221L349.077 99.9527L233.645 117.157C215.415 119.868 197.209 122.628 179.004 125.315C177.145 125.963 175.122 125.963 173.263 125.315C172.567 124.859 172.615 124.403 173.263 123.996C174.411 122.977 175.884 122.399 177.418 122.364L342.136 97.7932L404.127 88.5552C405.215 88.3103 406.347 88.3433 407.418 88.6512V88.6512Z" fill="#040404"/>
<path d="M396.922 95.2021H398.171C396.345 97.6016 393.367 96.1379 391.23 97.1457C390.533 97.4576 389.476 96.7138 388.996 97.8415H388.516C386.83 98.8677 384.893 99.4075 382.919 99.4012C340.791 105.576 298.655 111.814 256.511 118.117C231.195 121.86 205.88 125.508 180.541 129.347C179.253 129.563 177.938 129.563 176.65 129.347C175.905 129.059 175.041 128.939 175.233 127.811C176.715 126.689 178.539 126.113 180.397 126.179C203.262 122.868 226.032 119.437 248.969 116.054L353.737 100.553C366.779 98.6094 379.797 96.5458 392.887 94.7702C393.548 94.53 394.255 94.444 394.955 94.5189C395.654 94.5938 396.327 94.8275 396.922 95.2021V95.2021Z" fill="#040404"/>
<path d="M9.55432 92.0342L11.1876 92.658L13.1811 125.963C13.1811 126.563 13.1811 127.618 12.8688 127.666C11.764 127.882 11.716 126.947 11.788 126.227C11.8727 121.255 11.6079 116.284 10.9954 111.35C10.5631 104.919 11.0675 98.3928 9.55432 92.0342Z" fill="#090909"/>
<path d="M2.73303 169.802H3.76582C4.28057 170.292 4.65121 170.913 4.83752 171.598C5.02382 172.284 5.01867 173.007 4.82263 173.689C4.25424 181.242 4.06986 188.818 4.2702 196.388C4.42934 197.901 4.23192 199.429 3.69376 200.852C3.62256 200.996 3.51939 201.121 3.39211 201.22C3.26483 201.318 3.1168 201.386 2.95929 201.418C2.80179 201.451 2.63896 201.447 2.4832 201.407C2.32745 201.367 2.18288 201.292 2.06051 201.187C1.74385 190.721 1.96832 180.245 2.73303 169.802V169.802Z" fill="#060606"/>
<path d="M2.06059 201.187H3.14142C4.52018 203.505 5.38814 206.09 5.68736 208.769C5.54325 209.273 5.32709 209.729 4.67859 209.681C2.91739 207.203 1.99963 204.226 2.06059 201.187Z" fill="#121212"/>
<path d="M32.7079 220.695L23.605 218.656C23.9172 217.168 25.1902 217.552 26.1509 217.36C28.5917 217.357 30.9973 217.941 33.1643 219.064C33.8128 219.759 33.4525 220.311 32.7079 220.695Z" fill="#444444"/>
<path d="M20.1704 217.599C17.7061 217.495 15.274 217.001 12.9649 216.135C12.9187 215.971 12.9081 215.799 12.9339 215.63C12.9598 215.461 13.0213 215.3 13.1145 215.157C13.2078 215.013 13.3305 214.892 13.4745 214.8C13.6185 214.708 13.7805 214.648 13.9496 214.624C16.3514 215.079 19.0655 214.624 20.963 216.855C20.9389 217.359 20.9389 217.863 20.1704 217.599Z" fill="#484848"/>
<path d="M20.1703 217.6L20.8909 217C21.3038 216.69 21.7791 216.473 22.284 216.364C22.7889 216.254 23.3114 216.256 23.8158 216.367C24.3201 216.479 24.7943 216.699 25.2056 217.011C25.617 217.323 25.9559 217.72 26.199 218.176C25.3343 218.344 24.3495 217.888 23.605 218.656C22.5962 217.912 21.059 218.752 20.1703 217.6Z" fill="#606060"/>
<path d="M13.7334 215.08L13.0849 216.135C11.8361 215.868 10.6924 215.243 9.79442 214.336C9.73251 214.279 9.68303 214.211 9.64918 214.134C9.61533 214.058 9.59784 213.975 9.59784 213.892C9.59784 213.808 9.61533 213.726 9.64918 213.649C9.68303 213.573 9.73251 213.504 9.79442 213.448C10.5375 213.198 11.346 213.226 12.0702 213.526C12.7944 213.826 13.3853 214.378 13.7334 215.08V215.08Z" fill="#3E3E3E"/>
<path d="M9.86651 213.424V214.336C8.5455 214.336 7.87298 213.376 7.24851 212.392C7.18347 212.341 7.13094 212.275 7.09483 212.2C7.05873 212.126 7.03998 212.044 7.03998 211.961C7.03998 211.878 7.05873 211.796 7.09483 211.721C7.13094 211.646 7.18347 211.58 7.24851 211.529C8.92979 211.001 9.65034 211.793 9.86651 213.424Z" fill="#303030"/>
<path d="M32.7079 220.694L33.3564 219.614C34.0165 219.266 34.7754 219.152 35.5086 219.292C36.2419 219.431 36.9058 219.816 37.3915 220.382C37.3915 221.462 36.3828 220.934 35.9744 221.342L32.7079 220.694Z" fill="#313131"/>
<path d="M7.24851 211.505V212.393C6.18231 211.764 5.34182 210.815 4.84668 209.681L5.42312 208.914C6.72011 209.154 7.20048 210.161 7.24851 211.505Z" fill="#161616"/>
<path d="M35.9744 221.343L37.3434 220.767C37.4703 220.636 37.625 220.534 37.7961 220.471C37.9672 220.407 38.1504 220.382 38.3323 220.398C38.5142 220.414 38.6901 220.471 38.8474 220.564C39.0046 220.657 39.139 220.783 39.2409 220.935L38.5924 221.991L35.9744 221.343Z" fill="#171717"/>
<path d="M236.071 46.7085C237.32 46.8765 239.073 46.3486 238.737 48.6521C238.737 49.18 239.001 49.4199 239.506 49.4199C244.069 49.4199 248.2 52.4672 253.124 51.0276C254.325 50.6916 257.928 49.8758 258.408 53.427C258.468 53.557 258.558 53.6706 258.671 53.7583C258.784 53.8461 258.916 53.9053 259.057 53.9309C263.62 53.9309 267.775 57.1222 272.651 55.4666C273.876 55.0587 276.398 54.7228 276.782 57.5062C276.782 58.13 277.719 57.7221 278.175 57.8901C284.18 60.1456 290.641 59.0178 296.718 60.5535C297.009 60.6831 297.29 60.8355 297.558 61.0094C297.078 62.4731 294.868 61.4653 294.724 63.1689C305.844 65.9763 316.965 68.8797 328.133 71.4711C329.695 71.831 331.592 70.6313 333.345 70.3194C336.228 69.8155 339.446 68.3278 340.911 72.7189C340.911 72.9588 341.896 72.8628 342.376 73.0308C347.684 74.9504 353.257 74.6144 358.733 74.9744C359.862 74.9744 360.943 74.9744 360.414 76.726C360.198 77.4938 360.798 77.5658 361.399 77.5898C366.203 77.9017 370.598 80.7091 375.642 79.0535C376.602 78.7176 379.004 78.3576 378.764 81.045C378.764 81.189 379.196 81.477 379.437 81.5009C382.919 81.5009 386.138 83.9004 389.476 83.3485C394.28 82.5807 398.483 84.4043 403.503 85.0762C401.38 86.1658 399.021 86.7179 396.634 86.6838C386.57 88.3875 376.482 89.8511 366.371 91.2908C355.298 92.8985 344.202 94.3142 333.153 95.9458C322.105 97.5775 311.08 99.4251 300.032 101.057C290.425 102.472 280.817 103.696 271.21 105.112C261.603 106.528 251.995 108.135 242.532 109.551C233.069 110.967 223.317 112.19 213.71 113.606C204.103 115.022 194.784 116.581 185.224 117.973C181.16 118.256 177.136 118.956 173.215 120.061L7.41663 82.2448C14.6221 81.357 21.6355 80.3732 28.6248 79.2454C36.2386 77.9977 43.8765 76.846 51.5143 75.5982L74.74 71.951L97.3173 68.3998L125.01 64.0087C133.897 62.617 142.832 61.2973 151.743 59.9056L179.1 55.5626L201.701 52.0593L228.77 47.8842L236.071 46.7085Z" fill="#CAD0F1"/>
<path d="M172.254 217.575C172.254 213.76 172.254 209.945 172.254 206.154C172.254 205.05 172.423 204.594 173.551 204.45C183.495 203.179 193.415 201.907 203.334 200.515C213.254 199.124 223.51 197.492 233.597 196.076C242.148 194.876 250.698 193.869 259.225 192.669C267.751 191.469 276.47 190.125 285.093 188.902C291.89 187.942 298.735 187.102 305.532 186.142C314.371 184.895 323.186 183.599 331.952 182.375C338.894 181.415 345.835 180.552 352.776 179.592C361.399 178.392 370.021 177.192 378.62 175.921C384.48 175.081 390.389 174.601 396.177 173.185C398.123 172.729 398.195 174.433 398.171 175.585C398.171 181.703 399.252 187.75 398.843 193.869C398.791 198.222 399.016 202.573 399.516 206.898C399.556 208.513 399.187 210.111 398.444 211.546C397.701 212.98 396.607 214.204 395.265 215.104C390.893 218.679 385.657 218.679 380.397 219.399C372.303 220.551 364.257 221.799 356.187 223.07C348.117 224.342 340.263 225.47 332.168 226.598L308.006 230.245L283.988 233.772L259.801 237.467C251.827 238.643 243.853 239.867 235.783 240.97C227.713 242.074 219.45 243.514 211.284 244.714C203.118 245.913 195.336 247.113 187.266 248.169C183.663 248.697 180.06 249.153 176.458 249.896C174.056 250.424 172.567 250.304 172.711 247.161C173.744 237.371 172.687 227.485 172.254 217.575Z" fill="#737AA5"/>
<path d="M39.241 220.935L37.3436 220.767C36.2868 219.447 34.4854 220.767 33.3565 219.615C31.0124 218.882 28.5971 218.399 26.151 218.175C24.5091 217.442 22.7373 217.042 20.939 217L13.7335 215.08L9.8906 213.424C9.24851 212.519 8.32998 211.845 7.2726 211.505L5.27908 208.913C4.17945 206.462 3.46647 203.856 3.16547 201.187C3.4777 190.725 2.9493 180.239 3.78994 169.802L4.03012 167.594L52.9315 178.296L99.551 188.566L151.791 199.987C157.531 201.235 163.224 202.651 168.988 203.73C170.861 204.066 171.39 204.93 171.39 206.514C171.39 207.282 171.39 208.049 171.39 208.913C171.598 221.007 171.83 233.084 172.086 245.145C172.086 246.993 172.375 248.817 172.567 250.976C158.54 247.761 144.682 244.57 130.799 241.378C111.945 237.155 93.0901 233.004 74.2357 228.805C63.8118 226.405 53.4118 224.006 43.0119 221.75C41.7389 221.319 40.3939 221.654 39.241 220.935Z" fill="#989FC9"/>
<path d="M176.674 128.579C183.879 127.619 191.085 126.731 198.434 125.699C206.601 124.524 214.767 123.3 222.957 122.004L247.504 118.309L271.522 114.806C279.809 113.558 288.071 112.238 296.357 111.015C304.643 109.791 312.546 108.783 320.64 107.583C328.734 106.384 336.78 105.184 344.85 103.912C352.92 102.64 361.231 101.513 369.445 100.409C375.834 99.4732 382.151 98.0095 388.66 97.7695C387.219 108.159 388.66 118.669 387.387 128.963C387.219 130.282 387.17 130.882 385.489 131.122C373.792 132.706 362.119 134.482 350.446 136.281C338.053 138.177 325.684 140.24 313.266 142.112C300.849 143.984 288.359 145.495 275.942 147.439C261.314 149.838 246.663 151.95 231.988 153.989C218.922 155.789 205.88 157.829 192.838 159.844C187.746 160.612 182.678 161.5 177.611 162.388C175.209 162.843 174.056 162.388 174.032 159.34C174.032 149.886 174.536 140.408 173.672 130.93C173.723 130.294 173.878 129.67 174.128 129.083C174.656 128.291 175.881 129.323 176.674 128.579Z" fill="#737AA5"/>
<path d="M396.922 95.2022L375.858 98.2015L351.84 101.777C343.553 103 335.267 104.296 326.981 105.496C318.694 106.696 310.816 107.775 302.722 108.975C294.628 110.175 286.606 111.375 278.536 112.67L259.057 115.502C250.963 116.654 242.868 117.901 234.798 119.005C226.728 120.109 218.658 121.404 210.564 122.676C202.47 123.948 194.351 124.908 186.281 126.107C182.558 126.635 178.884 127.379 175.185 128.027C174.925 128.281 174.575 128.423 174.212 128.423C173.849 128.423 173.499 128.281 173.239 128.027V125.316L194.568 122.052C202.614 120.805 210.66 119.533 218.73 118.333C226.8 117.133 234.654 115.934 242.748 114.854L266.767 111.327L290.929 107.655L314.947 104.176L339.47 100.457L368.148 96.114C377.059 94.7703 385.97 93.3306 394.904 92.0589C397.042 91.6989 397.258 93.3546 396.922 95.2022Z" fill="#FEFEFE"/>
<path d="M407.418 88.6517C402.551 89.8952 397.598 90.7695 392.599 91.2671C384.361 92.6588 376.074 93.8586 367.788 95.0823C359.502 96.306 351.816 97.3138 343.77 98.5136C335.723 99.7133 327.629 100.913 319.559 102.233C311.489 103.552 303.827 104.512 295.949 105.688L271.474 109.383L247.888 112.862C239.626 114.11 231.34 115.454 223.077 116.702C215.512 117.853 207.97 118.933 200.404 120.037L173.335 123.996V120.757L194.039 117.781L213.782 114.854C222.045 113.606 230.307 112.311 238.593 111.087C246.88 109.863 254.541 108.687 262.612 107.656C270.682 106.624 278.968 105.256 287.158 103.984C295.349 102.713 303.323 101.585 311.393 100.457L335.916 96.7619L359.598 93.2587L384.745 89.4675C391.014 88.5317 397.282 87.5959 403.575 86.7321C405.232 86.5162 407.01 86.3962 407.418 88.6517Z" fill="#FEFEFE"/>
<path d="M394.352 172.273C389.14 173.137 384.048 173.929 378.98 174.841C376.386 175.296 374.177 175.32 372.807 172.441C371.438 169.562 368.556 169.466 365.914 169.01C360.534 168.05 355.394 165.842 349.87 165.938C346.916 165.938 344.49 166.562 342.088 163.395C339.686 160.228 335.267 160.996 331.664 160.012C326.14 158.644 320.592 157.156 314.851 158.62C314.203 158.788 313.17 159.076 312.738 158.308C309.952 153.317 304.619 154.109 300.272 152.837C294.655 150.866 288.619 150.394 282.763 151.47C281.67 151.649 280.549 151.52 279.526 151.096C278.503 150.672 277.619 149.97 276.974 149.07C285.381 146.023 293.643 147.63 302.074 149.67C325.828 155.453 349.654 160.9 373.48 166.466C379.509 167.882 385.489 169.154 391.566 170.617C392.454 170.905 393.775 170.857 394.352 172.273Z" fill="#FEFEFE"/>
<path d="M289.68 167.906C292.082 164.427 295.805 163.563 299.288 162.699C303.827 161.571 308.318 159.484 313.218 160.636C321.721 156.94 329.575 161.595 337.693 162.603C338.807 162.757 339.869 163.169 340.795 163.807C341.721 164.444 342.485 165.289 343.025 166.274C336.313 167.2 329.714 168.808 323.33 171.073C322.034 171.571 320.82 172.258 319.727 173.113C318.91 173.737 318.07 174.553 318.959 175.776L318.55 176.064C316.148 176.4 313.747 175.104 311.345 174.768C309.905 174.381 308.401 174.291 306.925 174.505C305.393 174.673 303.846 174.673 302.314 174.505C301.984 174.435 301.668 174.313 301.377 174.145C299.321 171.952 296.591 170.508 293.619 170.041C292.202 169.634 290.593 169.682 289.512 168.434L289.68 167.906Z" fill="#FEFEFE"/>
<path d="M258.288 160.708C259.536 158.881 261.391 157.555 263.524 156.964C271.582 153.952 280.093 152.329 288.695 152.166C295.493 152.022 301.906 154.565 308.463 156.005C309.88 156.317 310.408 157.564 311.945 158.764C307.11 159.445 302.333 160.487 297.654 161.883C295.153 162.477 292.788 163.544 290.689 165.027C289.8 165.771 288.599 166.418 289.752 167.858C288.551 169.01 287.35 168.146 286.077 167.858C283.409 166.969 280.603 166.563 277.791 166.658C275.389 166.466 272.987 167.402 270.586 167.018C268.192 164.724 265.162 163.202 261.891 162.651C260.592 162.596 259.356 162.076 258.408 161.188L258.288 160.708Z" fill="#FEFEFE"/>
<path d="M319.054 175.752C322.801 170.953 328.518 170.593 333.682 169.25C338.085 168.329 342.535 167.648 347.012 167.21C352.32 166.466 357.22 168.506 362.287 169.37C363.969 169.657 365.626 170.113 367.283 170.449C368.648 170.708 369.922 171.318 370.979 172.219C372.036 173.119 372.84 174.279 373.312 175.584L338.221 180.383C335.819 180.719 333.417 181.223 331.016 181.655C328.503 179.65 325.532 178.298 322.369 177.72C321.24 177.36 319.415 177.72 319.271 175.728L319.054 175.752Z" fill="#FEFEFE"/>
<path d="M224.302 185.542H219.21C219.068 185.659 218.89 185.723 218.706 185.723C218.522 185.723 218.344 185.659 218.202 185.542C215.919 183.513 213.101 182.181 210.083 181.703C208.762 181.295 207.105 181.151 206.913 179.303C206.721 177.456 208.306 176.688 209.699 176.136C214.034 174.737 218.514 173.836 223.053 173.449C227.857 172.681 232.541 172.369 237.224 171.577C244.027 172.807 250.718 174.589 257.231 176.904C258.408 177.264 259.417 177.912 259.441 179.303C259.412 179.662 259.278 180.004 259.057 180.287C254.589 182.159 249.69 181.751 245.078 182.927C241.764 183.79 238.113 183.814 235.879 187.078C235.588 187.411 235.198 187.643 234.765 187.738C234.333 187.833 233.881 187.786 233.477 187.606C230.451 186.886 227.305 186.55 224.302 185.542Z" fill="#FEFEFE"/>
<path d="M122.921 190.725C122.224 191.421 121.864 192.213 120.375 191.877C111.728 189.845 103.074 187.942 94.4111 186.166C92.4896 185.782 92.6817 184.75 92.7298 183.479C93.018 180.935 95.1316 180.623 96.981 180.119C102.448 178.773 108.014 177.867 113.626 177.408C116.666 176.621 119.828 176.418 122.945 176.808C128.973 178.416 134.954 179.951 141.055 181.607C142.415 181.859 143.678 182.482 144.705 183.407C144.345 185.422 142.664 185.374 141.199 185.59C137.452 186.142 133.681 186.622 129.982 187.462C127.411 187.999 124.996 189.115 122.921 190.725V190.725Z" fill="#FEFEFE"/>
<path d="M218.298 185.447H219.21C215.127 186.095 211.02 186.67 206.937 187.366C203.694 187.942 200.452 188.638 197.33 189.382C196.513 189.574 195.432 189.958 195.12 190.582C193.607 193.533 191.301 192.693 189.163 191.901C184.744 190.246 180.373 191.445 175.977 191.901C175.76 191.636 175.634 191.308 175.617 190.965C175.473 189.598 174.344 189.334 173.215 188.95C172.086 188.566 170.549 188.038 169.18 187.63C167.811 187.222 165.049 187.078 165.169 184.655C165.289 182.231 167.571 181.967 169.276 181.512C176.486 179.934 183.785 178.796 191.133 178.104C192.526 177.936 193.919 177.672 195.312 177.504C202.518 178.416 209.003 181.272 215.8 183.287C216.862 183.689 217.747 184.454 218.298 185.447Z" fill="#FEFEFE"/>
<path d="M59.5123 176.352C58.7918 177.528 58.4795 178.344 56.3899 177.816C48.0796 175.729 39.5771 174.193 31.2428 172.369C30.258 172.153 28.7208 172.369 28.8409 170.546C29.2012 167.714 31.4349 166.994 33.6446 166.395C39.028 165.163 44.4826 164.265 49.9771 163.707C53.0754 163.251 56.2218 163.011 59.2962 162.483C66.1298 163.716 72.8527 165.497 79.3995 167.81C79.8938 167.881 80.3538 168.104 80.7154 168.448C81.077 168.792 81.3222 169.24 81.4171 169.73C81.0568 171.505 79.6157 171.721 78.2226 171.913C71.781 172.336 65.4563 173.837 59.5123 176.352V176.352Z" fill="#FEFEFE"/>
<path d="M176.001 191.157V191.925C169.519 192.545 163.094 193.668 156.787 195.285C156.186 195.477 155.346 195.501 155.009 195.908C152.367 199.196 149.221 198.092 145.93 197.3C138.893 195.645 131.808 194.181 124.722 192.717C123.834 192.525 123.689 192.141 123.761 191.445C124.05 189.238 125.707 188.542 127.532 187.966C131.681 186.83 135.913 186.028 140.19 185.567C144.994 184.823 149.533 183.983 154.241 183.431C161.446 184.223 167.883 187.174 174.68 189.166C175.353 189.382 176.506 189.766 176.001 191.157Z" fill="#FEFEFE"/>
<path d="M186.449 176.832C184.048 174.264 180.613 174.6 177.803 173.257C177.154 172.945 175.881 173.665 175.833 172.297C175.785 170.929 176.626 170.617 177.539 170.161C180.409 169.007 183.422 168.248 186.497 167.906C192.838 166.826 199.203 165.938 205.712 165.338C207.846 165.338 209.959 165.754 211.933 166.562C217.265 168.242 222.933 168.962 227.857 171.745C227.353 173.689 225.599 173.497 224.182 173.665C220.086 174.105 216.02 174.786 212.005 175.704C210.911 175.799 209.853 176.142 208.913 176.708C207.972 177.273 207.173 178.046 206.577 178.967C205.88 180.335 204.775 179.735 203.719 179.519C200.962 178.561 198.083 178.004 195.168 177.864C193.078 178.44 190.893 177.984 188.779 178.631C187.242 179.183 186.666 178.152 186.449 176.832Z" fill="#FEFEFE"/>
<path d="M28.1445 169.801C27.8563 171.121 27.0397 171.385 25.7427 171.121C19.642 169.753 13.5173 168.458 7.46472 166.754C22.4041 164.714 37.3435 162.699 52.2829 160.611C67.2223 158.524 82.7142 156.268 97.9178 154.061C103.226 153.293 108.486 152.285 113.794 151.517C116.667 151.281 119.551 151.811 122.152 153.053C119.414 153.677 116.964 154.229 114.538 154.829C114.21 154.872 113.906 155.024 113.674 155.26C110.047 160.515 105.7 156.796 101.665 156.244C101.208 156.244 100.848 156.052 100.536 156.484C98.1339 158.452 95.2037 157.732 92.5377 158.164C86.8934 159.076 81.177 159.555 75.6047 160.923C74.4759 161.211 72.9387 161.139 72.2662 162.027C69.432 165.818 66.0695 164.091 62.6589 163.323C61.554 163.059 60.4252 162.411 59.2002 162.891C50.7301 163.684 42.3051 164.902 33.9569 166.538C31.7039 166.932 29.6533 168.084 28.1445 169.801V169.801Z" fill="#FEFEFE"/>
<path d="M145.234 182.735C142.832 180.047 139.181 180.335 136.251 179.064C135.458 178.68 134.065 179.064 134.089 177.72C134.113 176.376 135.266 176.136 136.131 175.848C140.631 174.466 145.257 173.534 149.941 173.065C154.313 172.465 158.66 171.841 163.031 171.313C166.132 171.253 169.21 171.85 172.062 173.065C176.722 174.481 181.67 174.96 185.921 177.624C185.393 179.591 183.663 179.399 182.246 179.567C178.059 179.998 173.903 180.695 169.805 181.655C168.532 181.967 166.922 182.111 166.274 183.167C164.304 186.502 161.638 185.182 159.068 184.63C157.459 183.931 155.703 183.634 153.953 183.766C151.863 184.318 149.677 183.766 147.564 184.534C146.026 185.062 145.474 184.03 145.234 182.735Z" fill="#FEFEFE"/>
<path d="M228.289 170.954C225.887 168.243 222.068 168.555 219.018 167.259C218.274 166.923 217.145 167.259 217.145 165.963C217.145 164.668 218.081 164.524 218.85 164.236C223.426 162.793 228.132 161.796 232.901 161.26C237.489 160.901 242.047 160.228 246.543 159.245C248.945 157.829 251.227 159.245 253.388 159.893C257.856 161.116 262.227 162.604 266.646 163.996C267.775 164.356 269.361 164.572 269.048 166.395C266.863 168.795 263.788 168.003 261.098 168.531C258.024 169.131 254.926 169.634 251.899 170.474C251.371 170.618 250.65 170.474 250.386 170.978C247.456 175.201 243.733 172.994 240.202 172.298C239.202 171.872 238.096 171.763 237.032 171.986C234.942 172.562 232.757 171.986 230.667 172.754C229.082 173.306 228.529 172.274 228.289 170.954Z" fill="#FEFEFE"/>
<path d="M100.704 157.228C106.756 158.836 112.713 160.371 118.814 162.027C120.17 162.288 121.432 162.91 122.464 163.827C122.104 165.866 120.423 165.794 118.958 166.01C114.746 166.485 110.567 167.214 106.444 168.194C104.562 168.437 102.843 169.39 101.641 170.857C100.728 172.177 99.4789 171.961 98.1339 171.721C95.6531 170.908 93.0587 170.495 90.448 170.497C87.6139 170.041 84.7077 172.057 81.8975 170.233C80.4564 167.402 77.3821 167.594 74.9802 166.562C73.2749 165.842 70.4168 166.322 70.3687 163.923C70.3207 161.523 73.0828 161.139 75.0283 160.707C83.4814 158.872 92.0668 157.709 100.704 157.228V157.228Z" fill="#FEFEFE"/>
<path d="M91.697 182.903C91.697 184.799 91.4568 185.542 89.0069 184.943C79.6878 182.711 70.2726 180.887 60.9055 178.92C60.1849 178.752 60.1849 178.224 60.1849 177.696C60.4251 175.657 61.9383 174.865 63.6436 174.313C69.6942 172.762 75.8519 171.663 82.0656 171.026C84.9238 170.57 87.83 170.306 90.7122 170.114C97.4641 171.074 104.108 172.681 110.551 174.913C111.464 175.225 112.617 175.609 112.449 176.808C112.281 178.008 111.08 178.128 110.047 178.2C107.021 178.488 104.042 179.016 101.04 179.496C97.7126 179.931 94.5223 181.094 91.697 182.903V182.903Z" fill="#FEFEFE"/>
<path d="M132.096 164.427C139.444 166.031 146.625 168.321 153.544 171.265C151.142 171.649 148.741 171.961 146.339 172.417C143.096 173.017 139.854 173.713 136.731 174.385C136.303 174.44 135.901 174.624 135.579 174.913C132.144 179.568 128.085 176.544 124.218 175.872C123.762 175.872 123.401 175.68 123.089 176.112C119.366 176.904 115.763 178.848 111.969 175.776C109.691 174.522 107.198 173.708 104.619 173.377C103.514 173.041 102.073 172.873 102.001 171.361C101.929 169.85 103.322 169.154 104.523 168.746C108.348 167.526 112.294 166.722 116.292 166.346C121.095 165.795 125.659 164.451 130.439 164.283C130.994 164.175 131.568 164.225 132.096 164.427V164.427Z" fill="#FEFEFE"/>
<path d="M329.623 181.559L291.001 186.934C286.846 185.878 282.955 184.055 278.992 182.663C276.998 181.967 277.239 179.999 279.352 178.728C282.36 177.264 285.622 176.393 288.96 176.16C295.06 175.153 301.185 174.505 307.334 174.073C309.382 173.889 311.443 174.21 313.338 175.009C318.142 176.16 322.945 177.408 327.605 179.088C328.566 179.424 330.415 179.544 329.623 181.559Z" fill="#FEFEFE"/>
<path d="M288.407 187.462C281.37 188.35 274.332 189.19 267.295 190.125C261.026 190.989 254.757 191.949 248.489 192.885C245.238 191.388 241.873 190.152 238.425 189.19C237.392 188.95 236.287 188.446 236.311 187.078C236.335 185.71 237.296 185.135 238.281 184.679C241.28 183.384 244.466 182.574 247.72 182.279C254.061 181.487 260.33 180.264 266.671 179.448C273.876 180.336 280.433 183.215 287.254 185.326C288.119 185.614 289.224 186.166 288.407 187.462Z" fill="#FEFEFE"/>
<path d="M246.543 193.365C240.707 194.133 234.846 194.876 229.01 195.764C222.189 196.724 215.391 197.732 208.57 198.668C208.042 198.668 207.249 198.835 206.985 198.668C204.223 195.5 200.092 195.596 196.537 194.276C195.84 194.013 194.952 194.109 194.904 193.125C194.856 192.141 195.576 191.805 196.273 191.493C199.435 190.185 202.781 189.375 206.192 189.094C211.717 188.326 217.289 187.75 222.837 187.03C223.357 186.881 223.851 186.655 224.302 186.358C226.44 185.422 228.313 186.694 230.259 187.102C235.081 188.187 239.837 189.549 244.502 191.181C245.486 191.205 247.36 191.301 246.543 193.365Z" fill="#FEFEFE"/>
<path d="M153.376 198.907C155.201 196.052 158.012 195.884 160.365 195.476C168.044 193.888 175.819 192.806 183.639 192.237C188.443 192.021 193.367 194.348 198.17 195.812C200.884 196.214 203.461 197.259 205.688 198.859L189.067 201.259C185.993 201.691 182.871 201.907 179.844 202.602C171.558 204.522 164.064 200.779 156.21 199.603C155.442 199.411 154.577 199.171 153.376 198.907Z" fill="#FEFEFE"/>
<path d="M195.12 165.627C189.707 166.06 184.345 166.984 179.1 168.387C177.178 168.915 175.305 169.467 174.632 171.626C174.32 172.61 173.984 172.274 173.263 172.034C168.056 170.045 162.364 169.702 156.955 171.05C156.648 171.151 156.323 171.181 156.003 171.14C155.683 171.098 155.376 170.986 155.105 170.81C152.704 167.907 148.933 168.123 145.882 166.779C145.186 166.467 143.937 167.139 143.793 165.867C143.649 164.596 144.682 163.948 145.69 163.468C148.727 162.459 151.845 161.713 155.009 161.236C160.077 160.109 164.737 162.148 169.42 163.372C174.104 164.596 177.995 163.372 182.222 162.868C184.624 162.628 187.026 162.076 189.26 161.932C190.495 161.888 191.715 162.217 192.761 162.876C193.806 163.536 194.628 164.494 195.12 165.627V165.627Z" fill="#FEFEFE"/>
<path d="M172.399 128.579C163.776 126.659 155.153 124.811 146.555 122.796C131.928 119.389 117.349 115.837 102.721 112.454C101.328 112.142 100.536 111.998 100.8 110.342C101.064 108.687 102.505 109.023 103.538 109.263C125.635 114.422 147.732 119.628 169.853 124.739C170.63 124.877 171.333 125.29 171.831 125.902C172.329 126.515 172.59 127.286 172.567 128.075L172.975 128.483L172.399 128.579Z" fill="#FDFDFD"/>
<path d="M122.993 163.108C120.735 160.708 117.373 160.876 114.634 159.628C113.89 159.316 112.425 160.06 112.401 158.525C112.377 156.989 113.458 156.629 114.442 156.125C117.467 155.067 120.601 154.35 123.785 153.99C129.91 153.198 135.434 156.101 141.319 156.869C142.26 157.036 143.191 157.26 144.105 157.541C141.474 158.228 138.791 158.701 136.083 158.956C139.016 159.883 142.157 159.925 145.114 159.076C147.962 158.392 150.961 158.749 153.568 160.084C150.955 160.641 148.373 161.338 145.834 162.172C145.614 162.208 145.416 162.329 145.282 162.508C141.655 167.763 137.308 164.043 133.273 163.467C132.816 163.467 132.456 163.3 132.144 163.731C129.934 165.339 127.34 164.283 124.938 165.051C123.521 165.363 123.233 164.043 122.993 163.108Z" fill="#FEFEFE"/>
<path d="M238.617 159.075C232.853 160.083 227.521 160.947 222.213 161.979C219.811 162.459 217.001 162.867 215.824 165.65C215.271 166.97 214.383 165.89 214.046 165.794C209.199 164.048 203.929 163.847 198.963 165.218C195.648 166.154 195.576 162.075 193.15 161.331C200.356 160.227 207.561 159.099 214.767 158.02C219.784 157.555 224.772 156.81 229.706 155.788C233.717 154.78 235.831 156.676 238.617 159.075Z" fill="#FEFEFE"/>
<path d="M4.75066 86.0595C9.55433 87.1153 14.7423 88.2431 19.9302 89.4668C32.5879 92.4422 45.2216 95.4895 57.8792 98.4648C58.7624 98.5873 59.594 98.9528 60.2811 99.5206C58.6718 99.5206 59.5845 102.568 56.8224 101.92C42.0511 98.2969 27.1598 94.9856 12.3164 91.7223L4.12618 89.9227C2.58901 89.6108 2.42088 88.579 2.4449 87.2593C2.46891 85.9396 3.40563 85.9875 4.75066 86.0595Z" fill="#FDFDFD"/>
<path d="M246.543 158.74C246.543 158.74 246.327 158.74 246.231 158.74C242.076 159.436 238.305 159.1 235.999 155.021C247.408 153.245 259.057 151.374 270.754 149.67C272.055 149.266 273.45 149.281 274.743 149.711C276.036 150.142 277.161 150.967 277.959 152.07C272.626 152.937 267.401 154.369 262.371 156.341C260.57 157.133 257.568 157.421 258.384 160.876C255.982 161.98 253.941 160.06 251.659 159.916C249.978 159.424 248.27 159.032 246.543 158.74V158.74Z" fill="#FEFEFE"/>
<path d="M61.9623 104.104C67.9493 105.335 74.0337 106.034 80.1442 106.192C85.2378 106.22 90.3292 105.972 95.3958 105.448C95.924 105.354 96.4455 105.226 96.957 105.064C99.599 104.416 100.68 105.328 100.007 108.087C99.4598 110.754 99.282 113.483 99.4789 116.197C99.4789 118.093 98.6143 118.597 97.0771 118.765C95.5399 118.933 94.363 118.165 94.387 116.365C94.4108 116.038 94.4108 115.709 94.387 115.382C94.1228 109.119 94.1228 109.335 87.5898 109.575C79.2602 110.14 70.8929 109.73 62.6588 108.351C62.4426 108.351 62.2265 108.351 62.0103 108.351C61.2622 108.21 60.5964 107.789 60.1498 107.173C59.7031 106.557 59.5094 105.794 59.6085 105.04C59.7286 102.184 61.7701 106.144 61.9623 104.104Z" fill="#FDFDFD"/>
<path d="M171.87 124.067C148.941 118.597 126.091 113.174 103.322 107.799C102.025 107.511 100.92 107.463 101.4 105.783C101.881 104.104 102.914 105.423 103.802 105.615C125.851 110.654 147.9 115.765 169.997 120.588C172.591 121.164 172.038 122.268 171.87 124.067Z" fill="#FDFDFD"/>
<path d="M67.0782 97.6014C61.2658 99.521 56.1739 96.7136 50.9859 95.5858C35.7583 92.2746 20.6508 88.3874 5.5192 84.8602H4.87071C3.62175 84.5962 1.26796 85.532 1.53216 83.5645C1.79636 81.5969 4.12614 82.6527 5.44715 82.9886C25.2222 87.4836 44.9893 92.0026 64.7484 96.5456C65.5802 96.7606 66.3684 97.1178 67.0782 97.6014Z" fill="#FDFDFD"/>
<path d="M94.411 103.409C82.828 105.441 70.9309 104.76 59.6565 101.417C64.9039 98.5659 71.0266 97.7703 76.8296 99.1858C82.6661 100.697 88.5505 102.017 94.411 103.409Z" fill="#FDFDFD"/>
<path d="M122.993 163.107C123.617 163.851 124.002 165.075 125.395 164.499C127.556 163.563 129.886 164.139 132.072 163.683V164.427C127.308 165.376 122.498 166.073 117.661 166.515C113.112 167.083 108.62 168.038 104.235 169.37C103.25 169.706 101.977 170.138 102.049 171.458C102.121 172.777 103.562 172.321 104.451 172.705C107.597 174.121 111.512 173.785 114.058 176.832C114.329 177.009 114.636 177.12 114.957 177.158C115.278 177.195 115.603 177.158 115.907 177.048C118.283 176.58 120.693 176.307 123.113 176.233V176.976C118.394 177.947 113.622 178.644 108.822 179.064C104.604 179.597 100.424 180.399 96.3085 181.463C95.6131 181.56 94.9473 181.808 94.358 182.189C93.7688 182.571 93.2704 183.076 92.8979 183.671L91.8651 183.047C94.0268 179.784 97.7016 179.856 100.896 179.16C104.09 178.464 107.885 178.176 111.368 177.672C111.916 177.457 112.439 177.183 112.929 176.856C105.781 174.261 98.472 172.129 91.0485 170.474C90.7123 170.258 90.6882 169.994 91.0485 169.706C93.6238 169.776 96.1707 170.262 98.5903 171.146C99.6231 171.434 100.68 171.866 101.521 170.138C102.361 168.41 104.979 167.738 107.045 167.355C111.297 166.362 115.615 165.68 119.967 165.315C120.496 165.354 121.027 165.255 121.506 165.027C121.986 164.8 122.399 164.453 122.705 164.019L122.993 163.107Z" fill="#060606"/>
<path d="M71.5937 110.918C77.5502 110.918 83.4828 110.918 89.4393 110.918C90.2162 110.909 90.982 111.103 91.6611 111.48C92.3401 111.857 92.909 112.405 93.3116 113.068C93.7142 113.732 93.9365 114.49 93.9566 115.265C93.9768 116.041 93.794 116.809 93.4264 117.493C93.3995 117.594 93.3518 117.688 93.2864 117.769C93.2209 117.85 93.1391 117.916 93.0462 117.964C92.9534 118.011 92.8516 118.039 92.7474 118.044C92.6433 118.05 92.5391 118.034 92.4416 117.997C85.4763 115.837 78.2227 114.565 71.5937 110.918Z" fill="#FDFDFD"/>
<path d="M372.231 164.907C373.432 164.267 374.492 163.394 375.35 162.339C376.208 161.285 376.846 160.069 377.227 158.764C377.587 157.612 378.476 157.612 379.221 157.468C379.781 157.418 380.323 157.242 380.806 156.952C381.289 156.662 381.699 156.267 382.007 155.795C382.314 155.324 382.511 154.789 382.581 154.231C382.652 153.673 382.595 153.106 382.415 152.574C382.103 151.446 382.631 151.014 383.039 150.342C384.192 148.374 384.985 149.286 385.441 150.726C386.005 152.276 386.005 153.975 385.441 155.525C383.948 159.729 381.057 163.294 377.251 165.627C375.522 166.682 374.009 164.763 372.231 164.907Z" fill="#FDFDFD"/>
<path d="M351.792 160.132C352.965 159.622 354.015 158.865 354.869 157.913C355.723 156.96 356.361 155.834 356.739 154.613C357.124 153.341 358.036 153.053 359.141 152.813C361.351 152.333 362.744 150.87 362.264 148.71C362.077 147.9 362.142 147.052 362.451 146.28C362.761 145.508 363.298 144.849 363.993 144.391C366.275 147.151 366.251 150.054 363.993 153.797C360.342 159.772 357.46 161.355 351.792 160.132Z" fill="#FDFDFD"/>
<path d="M391.206 169.083C392.214 168.147 393.607 167.451 394.016 166.395C395.145 163.996 396.177 162.004 399.084 161.38C399.43 161.275 399.751 161.1 400.028 160.867C400.305 160.635 400.533 160.348 400.696 160.026C400.86 159.703 400.957 159.351 400.981 158.99C401.005 158.629 400.956 158.267 400.837 157.925C400.188 155.91 401.245 154.782 402.446 153.558C404.848 156.294 404.848 159.677 402.206 163.468C398.723 168.459 395.625 171.77 391.206 169.083Z" fill="#FDFDFD"/>
<path d="M154.241 183.287C155.634 182.591 156.931 183.479 158.18 183.743C160.966 184.318 163.2 185.686 166.082 182.735C168.964 179.783 173.528 180.575 177.322 179.543C180.181 178.776 183.423 179.879 185.921 177.624L186.449 176.832C187.05 177.576 187.458 178.8 188.851 178.224C191.013 177.288 193.343 177.888 195.552 177.408C195.627 177.462 195.687 177.535 195.725 177.619C195.762 177.703 195.778 177.796 195.768 177.888C195.768 178.08 195.72 178.176 195.624 178.176C190.861 179.127 186.051 179.824 181.213 180.263C176.645 180.783 172.129 181.69 167.715 182.975C166.754 183.311 165.481 183.743 165.529 185.038C165.577 186.334 166.971 185.998 167.931 186.286C170.549 187.15 173.191 187.966 175.737 188.973C175.905 188.973 179.148 189.909 176.146 191.157C175.449 189.213 173.503 189.237 171.99 188.757C166.178 187.078 160.317 185.59 154.481 183.958C153.977 183.767 153.953 183.575 154.241 183.287Z" fill="#070707"/>
<path d="M195.528 178.176V177.408C198.651 177.096 201.413 178.68 204.415 179.04C204.944 179.04 205.592 180.12 206 179.04C207.802 174.673 212.053 175.177 215.608 174.241C218.845 173.405 222.162 172.915 225.503 172.777C225.977 172.808 226.45 172.71 226.872 172.495C227.295 172.279 227.652 171.954 227.905 171.554L228.433 170.762C229.058 171.506 229.466 172.729 230.835 172.153C232.997 171.218 235.327 171.817 237.512 171.314C237.596 171.365 237.661 171.442 237.7 171.532C237.738 171.622 237.748 171.721 237.729 171.817C237.729 172.009 237.729 172.081 237.729 172.081C232.967 173.041 228.156 173.738 223.318 174.169C219.07 174.668 214.864 175.47 210.732 176.568C209.315 177.024 207.441 177.36 207.586 179.208C207.73 181.055 209.603 180.144 210.66 180.6C212.485 181.391 214.551 181.559 216.376 182.519C217.553 183.119 218.778 183.503 218.562 185.207C212.653 181.415 205.664 180.888 199.347 178.728C197.858 178.608 196.681 178.44 195.528 178.176Z" fill="#070707"/>
<path d="M246.543 193.364C246.831 191.732 245.294 191.709 244.526 191.469C237.898 189.295 231.144 187.525 224.302 186.166V185.662C227.112 184.582 229.562 186.262 232.156 186.742C233.765 187.054 235.183 187.941 236.239 185.47C236.936 183.838 239.242 183.43 241.043 183.07C247.024 181.991 253.052 181.151 259.057 180.215C260.129 179.449 261.375 178.96 262.683 178.792C263.99 178.625 265.319 178.784 266.55 179.255C266.638 179.294 266.716 179.35 266.781 179.42C266.846 179.49 266.896 179.572 266.927 179.662C266.959 179.752 266.971 179.848 266.964 179.943C266.957 180.038 266.931 180.131 266.887 180.215C262.125 181.169 257.314 181.858 252.476 182.279C247.917 182.807 243.41 183.714 239.001 184.99C237.897 185.374 236.6 185.902 236.6 187.389C236.6 188.877 238.353 188.421 239.001 188.661C242.34 189.669 245.895 190.077 248.321 193.004C247.96 193.484 247.24 193.364 246.543 193.364Z" fill="#070707"/>
<path d="M266.815 180.143V179.351C268.328 177.576 270.033 178.895 271.618 179.351C274.02 179.855 276.422 180.575 278.319 178.008C278.944 177.168 280.217 177 281.274 176.688C286.982 175.345 292.765 174.335 298.591 173.665C299.912 173.449 300.993 174.288 302.386 173.88H307.502C307.71 174.008 307.782 174.128 307.718 174.24C307.718 174.24 307.574 174.408 307.502 174.408C302.998 175.399 298.432 176.081 293.835 176.448C289.349 176.944 284.909 177.786 280.553 178.967C279.448 179.327 278.151 179.687 278.007 181.079C277.863 182.471 279.64 182.231 280.409 182.447C284.164 183.266 287.727 184.798 290.905 186.958C290.184 187.749 289.2 187.414 288.311 187.486C288.023 185.086 285.909 185.374 284.468 184.942C278.704 183.166 272.747 181.703 266.815 180.143Z" fill="#070707"/>
<path d="M100.704 157.229C95.9427 158.191 91.1316 158.888 86.2929 159.316C81.9451 159.81 77.6467 160.669 73.4431 161.884C72.2181 162.291 70.6569 162.579 70.6089 164.067C70.5609 165.555 72.4343 165.147 73.395 165.555C75.1243 166.347 77.0938 166.563 78.8712 167.21C80.1922 167.666 81.8014 167.978 82.0897 169.802C82.039 169.876 81.9709 169.937 81.8914 169.979C81.8118 170.021 81.7233 170.043 81.6333 170.043C81.5434 170.043 81.4548 170.021 81.3752 169.979C81.2957 169.937 81.2277 169.876 81.177 169.802C75.4606 166.611 68.9276 165.939 62.8269 163.923C61.7221 163.563 60.5452 163.395 59.3923 163.131C59.0561 162.915 59.032 162.651 59.3923 162.363C60.8155 162.176 62.2631 162.358 63.5955 162.891C66.2616 163.515 68.3992 164.763 71.1613 161.836C73.9234 158.908 78.0786 159.436 81.7294 158.764C87.9741 157.732 94.291 157.229 100.584 156.365L100.704 157.229Z" fill="#070707"/>
<path d="M362.984 162.916C365.549 161.445 367.501 159.104 368.484 156.317C368.7 155.717 369.157 155.189 369.997 155.669C370.358 155.861 370.838 155.837 371.174 156.053C372.735 157.013 375.738 155.597 375.978 158.621C376.122 160.564 372.471 163.635 370.141 163.899C367.721 163.916 365.31 163.585 362.984 162.916V162.916Z" fill="#FDFDFD"/>
<path d="M342.785 158.213C344.564 157.102 346.073 155.611 347.204 153.846C347.901 152.91 347.684 150.918 348.957 150.99C351.07 151.262 353.137 151.811 355.106 152.622C355.995 152.934 355.755 153.87 355.49 154.613C354.965 155.98 354.051 157.163 352.86 158.016C351.669 158.869 350.254 159.355 348.789 159.412C347.108 159.172 345.355 158.669 342.785 158.213Z" fill="#FDFDFD"/>
<path d="M382.007 166.97C382.981 166.528 383.855 165.892 384.574 165.099C385.293 164.307 385.841 163.376 386.186 162.363C386.882 159.964 388.275 159.964 389.861 160.731C391.446 161.499 393.92 160.587 394.208 162.627C394.544 165.027 392.406 166.61 390.509 167.81C388.612 169.01 386.45 168.722 382.007 166.97Z" fill="#FDFDFD"/>
<path d="M154.241 183.287V184.055C149.437 185.35 144.633 185.326 139.83 186.166C135.747 186.886 131.64 187.534 127.58 188.398C126.693 188.541 125.852 188.892 125.126 189.422C124.4 189.951 123.809 190.644 123.401 191.445L122.705 190.725C123.569 187.606 126.428 187.414 128.781 186.862C133.028 185.794 137.36 185.095 141.727 184.774C142.258 184.815 142.79 184.72 143.274 184.497C143.757 184.275 144.176 183.932 144.489 183.503L145.018 182.735C145.642 183.455 146.027 184.678 147.42 184.127C149.725 183.167 152.031 183.767 154.241 183.287Z" fill="#090909"/>
<path d="M81.273 169.802H82.1857C85.092 171.049 87.9261 169.202 90.8083 169.562V170.329C86.1488 171.601 81.201 171.577 76.5414 172.417C72.4583 173.137 68.3512 173.809 64.2921 174.648C63.4079 174.801 62.5708 175.156 61.846 175.684C61.1212 176.213 60.5281 176.901 60.1129 177.696L59.4404 176.352C61.6981 173.233 65.3249 173.161 68.5673 172.465C71.8098 171.769 75.3405 171.529 78.7271 171.025C79.2185 171.039 79.7061 170.936 80.1491 170.723C80.5921 170.51 80.9775 170.194 81.273 169.802Z" fill="#090909"/>
<path d="M390.821 160.059C391.542 158.38 393.223 157.468 392.623 155.716C392.582 155.419 392.66 155.118 392.839 154.877C394.959 154.867 397.048 155.387 398.915 156.388C400.261 156.964 399.996 158.548 399.444 159.532C398.579 161.115 397.042 161.187 395.337 160.755C393.631 160.323 392.479 159.508 390.821 160.059Z" fill="#FBFBFB"/>
<path d="M352.2 150.533C352.684 149.738 353.221 148.976 353.809 148.254C354.53 147.486 352.752 145.303 354.962 145.686C357.101 145.659 359.173 146.429 360.775 147.846C361.077 148.304 361.213 148.851 361.16 149.397C361.108 149.942 360.87 150.454 360.486 150.845C360.102 151.28 359.604 151.599 359.049 151.769C358.493 151.938 357.902 151.951 357.34 151.805C355.707 151.349 354.049 150.989 352.2 150.533Z" fill="#FBFBFB"/>
<path d="M372.423 154.973L373.936 153.149C374.681 152.261 373.432 150.27 374.801 150.222C376.705 150.306 378.573 150.763 380.301 151.565C381.742 152.117 381.478 153.605 381.142 154.685C380.888 155.338 380.392 155.869 379.758 156.169C379.123 156.468 378.398 156.512 377.731 156.292C376.05 156.124 374.441 155.597 372.423 154.973Z" fill="#FBFBFB"/>
<path d="M59.3682 162.364V163.132C54.6467 164.084 49.8756 164.773 45.0773 165.195C40.8555 165.754 36.6694 166.555 32.5398 167.595C31.7137 167.762 30.9366 168.115 30.2668 168.626C29.5969 169.138 29.0519 169.794 28.6728 170.546L28.1444 169.802C28.865 166.539 31.8192 166.443 34.149 165.939C42.4679 164.197 50.8925 163.002 59.3682 162.364V162.364Z" fill="#080808"/>
<path d="M246.543 158.74C249.233 157.564 251.563 159.34 254.085 159.652C255.517 159.892 256.936 160.204 258.336 160.588C261.085 161.641 263.892 162.539 266.743 163.275C268.256 163.899 270.081 164.283 270.105 166.514C269.93 166.689 269.692 166.786 269.445 166.786C269.197 166.786 268.96 166.689 268.784 166.514C269.072 164.883 267.535 164.859 266.743 164.619C260.124 162.421 253.379 160.626 246.543 159.244V158.74Z" fill="#0A0A0A"/>
<path d="M307.382 174.289C307.358 174.114 307.358 173.937 307.382 173.762C310.048 172.61 312.401 174.385 314.899 174.697C316.34 174.865 317.757 175.321 319.175 175.633C321.917 176.683 324.715 177.581 327.557 178.321C329.07 178.944 330.92 179.328 330.92 181.56H329.623C329.887 179.928 328.35 179.904 327.581 179.664C320.963 177.467 314.217 175.672 307.382 174.289Z" fill="#0A0A0A"/>
<path d="M362.672 143.695C361.903 146.095 360.27 146.095 358.613 145.471C357.388 145.087 356.211 144.655 354.962 144.295C354.289 144.127 353.161 144.295 353.401 143.311C353.641 142.328 354.265 141.824 355.586 142.208C357.892 142.975 360.294 143.215 362.672 143.695Z" fill="#F9F9F9"/>
<path d="M382.967 148.35C382.87 148.758 382.681 149.139 382.413 149.462C382.145 149.785 381.807 150.042 381.424 150.214C381.041 150.385 380.623 150.467 380.204 150.452C379.784 150.436 379.374 150.325 379.004 150.126C378.077 149.915 377.18 149.584 376.338 149.142C375.498 148.494 373.384 149.622 373.744 147.702C374.105 145.783 375.858 146.767 376.987 146.959C378.98 147.27 380.926 147.774 382.967 148.35Z" fill="#F9F9F9"/>
<path d="M393.92 151.302C395.79 151.6 397.642 152.001 399.468 152.501C399.996 152.669 401.389 152.31 401.029 153.365C400.669 154.421 400.236 155.381 398.771 154.925C397.306 154.469 395.313 153.917 393.559 153.461C392.887 153.293 391.734 153.461 391.974 152.454C392.214 151.446 392.935 150.702 393.92 151.302Z" fill="#F9F9F9"/>
<path d="M385.778 158.692C385.797 160.717 385.015 162.666 383.603 164.118C382.191 165.569 380.262 166.405 378.236 166.443C380.97 164.085 383.516 161.518 385.85 158.764L385.778 158.692Z" fill="#F1F1F1"/>
<path d="M172.399 128.579C172.367 128.488 172.366 128.389 172.396 128.298C172.427 128.206 172.487 128.128 172.567 128.075H173.335H175.281L176.674 128.675C175.953 129.706 174.897 129.13 173.984 129.298L172.399 128.579Z" fill="#1E1E1E"/>
<path d="M253.773 43.3257C251.788 44.8102 250.237 46.7986 249.281 49.0845C248.825 50.1882 248.249 50.2362 247.288 49.8283C246.807 49.6124 246.159 49.7083 245.775 49.3964C244.334 48.2927 241.595 49.7803 240.971 47.2609C240.707 46.1331 245.39 42.4619 246.927 42.246C249.257 41.91 251.347 43.1098 253.773 43.3257Z" fill="#FDFDFD"/>
<path d="M375.426 71.447C373.43 72.899 371.889 74.888 370.982 77.1818C370.55 78.3095 369.997 78.3575 369.061 78.0216C368.435 77.9223 367.823 77.7532 367.235 77.5177C365.818 76.5579 363.368 77.7097 362.696 75.6701C362.263 74.4224 366.851 70.6072 368.628 70.3673C370.91 70.0553 373 71.2311 375.426 71.447Z" fill="#FDFDFD"/>
<path d="M356.715 66.7201C354.248 67.9677 352.325 70.0767 351.311 72.6468C350.855 73.8465 350.302 73.7266 349.39 73.4146C348.477 73.1027 347.18 72.6708 346.051 72.3829C342.232 71.4711 342.28 71.4231 344.754 68.5437C345.629 67.2981 346.907 66.3915 348.372 65.9763C349.837 65.5612 351.401 65.6628 352.8 66.2642C354.088 66.5367 355.399 66.6893 356.715 66.7201V66.7201Z" fill="#FDFDFD"/>
<path d="M273.396 47.8839C271.406 49.3518 269.867 51.3465 268.952 53.6426C268.52 54.7464 267.92 54.9143 267.055 54.4344C266.19 53.9545 265.686 54.2425 265.229 53.9545C263.764 53.0427 261.338 54.1705 260.666 52.1309C260.234 50.8592 264.725 47.068 266.574 46.8281C268.88 46.4922 270.97 47.7159 273.396 47.8839Z" fill="#FDFDFD"/>
<path d="M394.664 75.1424C392.169 76.5082 390.226 78.696 389.164 81.333C389.132 81.4873 389.066 81.6322 388.97 81.7568C388.873 81.8813 388.75 81.9822 388.608 82.0517C388.467 82.1212 388.311 82.1574 388.154 82.1576C387.996 82.1578 387.841 82.122 387.699 82.0529C386.991 81.876 386.293 81.6597 385.609 81.405C384.096 80.6132 381.742 81.597 380.95 79.6294C380.494 78.4536 385.057 74.5185 386.882 74.3025C389.236 73.9906 391.374 75.1184 394.664 75.1424Z" fill="#FDFDFD"/>
<path d="M292.562 51.7954C290.389 52.9022 288.63 54.677 287.542 56.8583C287.038 58.058 286.005 58.9698 284.468 57.986C284.204 57.8181 283.82 57.986 283.531 57.7221C282.018 56.9782 279.664 57.962 278.872 56.0904C278.319 54.7227 283.219 50.7156 285.285 50.7876C287.35 50.8596 289.536 51.2915 292.562 51.7954Z" fill="#FCFCFC"/>
<path d="M288.695 57.9374C289.001 56.7665 289.603 55.6941 290.445 54.824C291.286 53.9539 292.338 53.3155 293.499 52.9705C295.156 52.3946 297.246 52.6345 297.486 54.2182C297.513 55.0717 297.236 55.9072 296.704 56.5754C296.171 57.2435 295.419 57.7007 294.58 57.8654C292.622 58.0251 290.656 58.0491 288.695 57.9374Z" fill="#FCFCFC"/>
<path d="M274.308 53.9787C273.108 53.7628 271.33 54.7226 270.826 52.731C270.562 51.6272 274.669 48.6519 276.326 48.8438C277.455 48.9638 279.616 48.9878 279.184 50.4515C278.608 52.4431 277.575 55.0585 274.308 53.9787Z" fill="#FCFCFC"/>
<path d="M394.064 81.5012C393.127 81.1653 390.797 82.1011 391.278 80.2055C391.653 79.0806 392.372 78.1011 393.332 77.4041C394.292 76.7071 395.447 76.3275 396.634 76.3184C397.763 76.3184 399.444 76.3184 399.636 77.926C399.828 79.5337 397.066 81.5252 394.064 81.5012Z" fill="#FCFCFC"/>
<path d="M377.131 77.5661C375.402 77.5661 373.696 77.7581 372.904 76.3184C372.351 75.2866 376.771 72.1193 378.572 72.3832C379.629 72.5272 381.646 72.7672 381.238 73.8949C380.613 75.7905 380.109 78.5019 377.131 77.5661Z" fill="#FCFCFC"/>
<path d="M254.085 49.3959C253.124 49.1559 251.683 50.0917 251.203 48.3401C250.915 47.0684 254.878 44.045 256.751 44.261C257.856 44.381 259.993 44.261 259.561 45.9166C258.913 48.3161 257.303 50.3557 254.085 49.3959Z" fill="#FCFCFC"/>
<path d="M357.196 72.9827C355.562 72.9827 353.641 73.2706 353.281 71.8309C352.92 70.3912 354.674 69.4315 355.682 68.7596C356.452 68.1695 357.383 67.8262 358.352 67.7748C359.321 67.7234 360.283 67.9664 361.111 68.4717C361.232 68.5338 361.338 68.6224 361.421 68.7309C361.503 68.8394 361.561 68.965 361.588 69.0985C361.616 69.2321 361.613 69.3701 361.581 69.5025C361.548 69.6348 361.486 69.7582 361.399 69.8634C360.342 71.3031 359.886 73.9185 357.196 72.9827Z" fill="#FCFCFC"/>
<path d="M302.266 173.76C298.183 174.408 294.075 174.984 290.016 175.704C286.774 176.256 283.555 177 280.409 177.672C280.001 177.672 279.448 177.888 279.256 178.2C275.99 182.998 272.051 179.735 268.232 179.255C267.727 179.255 267.247 178.775 266.815 179.255L259.057 180.047V179.303C259.585 177.48 258 177.408 257.039 176.904C254.854 175.992 252.5 175.536 250.242 174.84C249.257 174.528 248.321 174.12 248.224 172.993C248.128 171.865 249.065 171.241 249.93 170.833C253.125 169.524 256.503 168.715 259.945 168.434C265.926 167.57 271.955 166.73 277.887 166.034C279.929 165.867 281.981 166.196 283.868 166.994C288.671 168.146 293.475 169.537 298.087 171.001C299.434 171.371 300.598 172.226 301.353 173.401L302.266 173.76Z" fill="#FEFEFE"/>
<path d="M301.353 173.665C295.324 169.898 288.287 169.202 281.706 167.211C280.465 166.883 279.206 166.627 277.935 166.443C277.727 166.331 277.655 166.211 277.719 166.083C277.719 166.083 277.863 165.915 277.935 165.915C280.625 164.763 282.955 166.539 285.477 166.851C286.909 167.091 288.328 167.403 289.728 167.786C292.346 169.202 295.396 169.322 298.086 170.474C299.552 171.074 301.545 171.29 301.353 173.665Z" fill="#0A0A0A"/>
<path d="M318.19 166.683C323.234 166.131 328.085 164.091 333.393 165.387L318.286 167.786L318.19 166.683Z" fill="#0A0A0A"/>
<path d="M313.746 167.835C309.711 166.419 305.388 165.987 301.497 164.283C305.858 164.106 310.158 165.352 313.746 167.835V167.835Z" fill="#0F0F0F"/>
<path d="M277.935 165.914V166.442C273.433 167.437 268.866 168.111 264.269 168.458C259.705 169.018 255.192 169.932 250.771 171.193C249.786 171.529 248.513 171.961 248.561 173.257C248.609 174.553 250.002 174.217 250.963 174.505C253.581 175.368 256.223 176.184 258.769 177.192C258.937 177.192 262.179 178.128 259.177 179.399C258.48 177.432 256.535 177.48 255.022 177C249.209 175.32 243.349 173.809 237.512 172.201V171.433C238.946 171.252 240.401 171.442 241.74 171.985C244.406 172.609 246.543 173.737 249.281 170.953C252.02 168.17 256.823 168.554 260.786 167.762C263.5 167.258 266.262 166.874 269 166.442H270.322C272.723 166.514 275.269 165.362 277.935 165.914Z" fill="#070707"/>
<path d="M286.75 159.532C291.818 158.884 296.669 156.893 302.002 158.14L286.918 160.54L286.75 159.532Z" fill="#0A0A0A"/>
<path d="M282.331 160.636C278.271 159.196 273.948 158.788 270.057 157.061C274.429 156.885 278.739 158.14 282.331 160.636V160.636Z" fill="#0F0F0F"/>
<path d="M362.768 173.233L347.708 175.633L347.588 174.673C352.584 173.905 357.412 171.985 362.768 173.233Z" fill="#0A0A0A"/>
<path d="M343.505 176.352C339.304 174.709 334.974 173.417 330.559 172.489C333.85 171.337 341.584 173.569 343.505 176.352Z" fill="#0F0F0F"/>
<path d="M231.339 179.88C237.811 178.897 244.328 178.248 250.866 177.936V178.872L231.339 180.983V179.88Z" fill="#0C0C0C"/>
<path d="M228.289 180.239C223.99 180.455 220.628 177.839 216.713 177.599C219.258 176.735 225.671 178.271 228.289 180.239Z" fill="#090909"/>
<path d="M136.515 183.455L117.012 185.543V184.487C123.484 183.443 130.013 182.794 136.563 182.543L136.515 183.455Z" fill="#0C0C0C"/>
<path d="M102.313 181.775C106.243 181.815 110.112 182.751 113.626 184.51C109.495 184.822 105.988 182.759 102.313 181.775Z" fill="#090909"/>
<path d="M209.051 184.775L189.548 186.838V185.782C196.019 184.743 202.548 184.11 209.099 183.887L209.051 184.775Z" fill="#0C0C0C"/>
<path d="M174.849 183.239C178.908 182.639 182.438 184.462 186.089 185.638C182.054 186.31 178.691 183.766 174.849 183.239Z" fill="#090909"/>
<path d="M73.0588 169.73L53.5319 171.769V170.737C60.0008 169.679 66.5313 169.038 73.0828 168.818L73.0588 169.73Z" fill="#0C0C0C"/>
<path d="M38.8326 168.122C42.9158 167.546 46.3744 169.585 50.0972 170.521C46.0381 171.145 42.5555 168.938 38.8326 168.122Z" fill="#090909"/>
<path d="M148.236 191.661C154.721 190.822 161.182 189.886 167.739 189.67V190.63L148.212 192.765L148.236 191.661Z" fill="#0C0C0C"/>
<path d="M145.042 191.637C140.862 192.165 137.452 189.694 133.561 189.07C137.764 188.566 141.295 190.461 145.042 191.637Z" fill="#090909"/>
<path d="M199.972 172.657C206.434 171.686 212.945 171.061 219.475 170.786V171.673L199.948 173.761L199.972 172.657Z" fill="#0C0C0C"/>
<path d="M185.248 169.993C189.224 169.998 193.142 170.944 196.681 172.753C192.55 173.04 189.067 170.977 185.248 169.993Z" fill="#090909"/>
<path d="M158.084 178.583C164.569 177.72 171.054 176.832 177.587 176.568V177.552L158.084 179.639V178.583Z" fill="#0C0C0C"/>
<path d="M143.432 175.92C147.564 175.464 151.142 177.264 154.841 178.607C150.638 178.967 147.203 176.856 143.432 175.92Z" fill="#090909"/>
<path d="M241.163 166.802C247.648 166.01 254.109 164.978 260.666 164.834V165.77L241.115 167.906L241.163 166.802Z" fill="#0C0C0C"/>
<path d="M237.801 166.802C233.765 167.042 230.283 165.123 226.536 164.163C230.619 163.611 234.126 165.579 237.801 166.802Z" fill="#090909"/>
<path d="M114.274 163.851L94.7233 165.89V164.834C101.208 163.971 107.717 163.107 114.25 162.795L114.274 163.851Z" fill="#0C0C0C"/>
<path d="M91.3127 164.786C87.2055 165.146 83.7709 162.986 79.976 162.387C84.1312 161.595 87.6138 163.73 91.3127 164.786Z" fill="#090909"/>
<path d="M104.475 176.928L84.9238 178.968V177.936C91.4088 177.072 97.9177 176.16 104.451 175.92L104.475 176.928Z" fill="#0C0C0C"/>
<path d="M81.4892 177.888C77.4542 178.296 74.0195 176.04 70.2006 175.488C74.3078 174.721 77.8144 176.712 81.4892 177.888Z" fill="#090909"/>
<path d="M126.091 171.961C132.553 170.997 139.065 170.404 145.594 170.185V171.025L126.043 173.088L126.091 171.961Z" fill="#0C0C0C"/>
<path d="M122.705 172.009C118.621 172.273 115.139 170.353 111.392 169.417C115.523 168.793 119.006 170.929 122.705 172.009Z" fill="#090909"/>
<path d="M301.953 181.847C308.438 180.983 314.947 180.119 321.48 179.832V180.863L301.929 182.903L301.953 181.847Z" fill="#0C0C0C"/>
<path d="M286.918 178.968C291.361 178.632 294.82 180.696 298.927 181.368C296.717 182.352 291.073 181.104 286.918 178.968Z" fill="#090909"/>
<path d="M260.81 187.654C267.281 186.702 273.8 186.109 280.337 185.878V186.742L260.81 188.781V187.654Z" fill="#0C0C0C"/>
<path d="M257.736 188.085C253.436 188.253 250.026 185.902 245.366 185.422C249.673 184.87 254.039 185.81 257.736 188.085V188.085Z" fill="#090909"/>
<path d="M238.521 192.62L218.97 194.684V193.652C225.442 192.609 231.971 191.96 238.521 191.708V192.62Z" fill="#0C0C0C"/>
<path d="M215.872 193.989C211.573 194.133 208.162 191.781 203.502 191.301C207.812 190.752 212.18 191.701 215.872 193.989V193.989Z" fill="#090909"/>
<path d="M197.57 198.476L177.178 200.563C179.748 198.596 195.48 197.084 197.57 198.476Z" fill="#0C0C0C"/>
<path d="M174.416 199.531C170.381 199.867 166.898 197.779 163.128 196.892C167.235 196.364 170.741 198.163 174.416 199.531Z" fill="#090909"/>
<path d="M164.857 166.514C160.558 166.658 157.171 164.115 153.28 163.827C157.333 163.367 161.422 164.316 164.857 166.514V166.514Z" fill="#090909"/>
<path d="M133.177 158.884C129.118 159.364 125.707 157.061 121.888 156.485C125.995 155.669 129.43 157.877 133.177 158.884Z" fill="#090909"/>
<path d="M272.531 174.001C279.04 173.209 285.501 172.177 292.058 172.033V172.969L272.507 175.105L272.531 174.001Z" fill="#0C0C0C"/>
<path d="M257.976 171.218C261.913 171.321 265.784 172.253 269.337 173.953C265.383 173.984 261.482 173.044 257.976 171.218V171.218Z" fill="#090909"/>
<path fill-rule="evenodd" clip-rule="evenodd" d="M189.678 91.8579L173.768 107.768C172.791 108.744 171.209 108.744 170.232 107.768L154.322 91.8579C153.346 90.8816 153.346 89.2986 154.322 88.3223C155.299 87.346 156.882 87.346 157.858 88.3223L169.5 99.9645L169.5 30C169.5 28.6193 170.619 27.5 172 27.5C173.381 27.5 174.5 28.6193 174.5 30L174.5 99.9645L186.142 88.3223C187.118 87.346 188.701 87.346 189.678 88.3223C190.654 89.2986 190.654 90.8816 189.678 91.8579Z" fill="url(#paint0_linear)"/>
<path fill-rule="evenodd" clip-rule="evenodd" d="M76.7678 58.7678L92.6777 42.8579C93.654 41.8816 93.654 40.2986 92.6777 39.3223C91.7013 38.346 90.1184 38.346 89.1421 39.3223L77.5 50.9645L77.5 3C77.5 1.61929 76.3807 0.5 75 0.5C73.6193 0.5 72.5 1.61929 72.5 3L72.5 50.9645L60.8579 39.3223C59.8815 38.346 58.2986 38.346 57.3223 39.3223C56.346 40.2986 56.346 41.8816 57.3223 42.8579L73.2322 58.7678C74.2085 59.7441 75.7914 59.7441 76.7678 58.7678ZM319.768 58.7678L335.678 42.8579C336.654 41.8816 336.654 40.2986 335.678 39.3223C334.701 38.346 333.118 38.346 332.142 39.3223L320.5 50.9645V3C320.5 1.61929 319.381 0.5 318 0.5C316.619 0.5 315.5 1.61929 315.5 3V50.9645L303.858 39.3223C302.882 38.346 301.299 38.346 300.322 39.3223C299.346 40.2986 299.346 41.8816 300.322 42.8579L316.232 58.7678C317.209 59.7441 318.791 59.7441 319.768 58.7678Z" fill="url(#paint1_linear)"/>
<defs>
<linearGradient id="paint0_linear" x1="172" y1="108.815" x2="172" y2="25.0741" gradientUnits="userSpaceOnUse">
<stop stop-color="#E05C5C"/>
<stop offset="1" stop-color="#FFDDDD" stop-opacity="0"/>
</linearGradient>
<linearGradient id="paint1_linear" x1="196.5" y1="0.5" x2="196.5" y2="59.5" gradientUnits="userSpaceOnUse">
<stop offset="0.078125" stop-color="#E05B5B" stop-opacity="0"/>
<stop offset="0.505208" stop-color="#E05B5B" stop-opacity="0.279762"/>
<stop offset="0.953125" stop-color="#E05B5B"/>
</linearGradient>
</defs>
</svg>
