<svg width="44" height="51" viewBox="0 0 44 51" fill="none" xmlns="http://www.w3.org/2000/svg">
<path fill-rule="evenodd" clip-rule="evenodd" d="M44 0H0V51H44V0ZM4 6C3.44772 6 3 6.44772 3 7V11C3 11.5523 3.44772 12 4 12H8C8.55228 12 9 11.5523 9 11V7C9 6.44772 8.55228 6 8 6H4ZM11 7C11 6.44772 11.4477 6 12 6H16C16.5523 6 17 6.44772 17 7V11C17 11.5523 16.5523 12 16 12H12C11.4477 12 11 11.5523 11 11V7ZM20 6C19.4477 6 19 6.44772 19 7V11C19 11.5523 19.4477 12 20 12H24C24.5523 12 25 11.5523 25 11V7C25 6.44772 24.5523 6 24 6H20ZM27 7C27 6.44772 27.4477 6 28 6H32C32.5523 6 33 6.44772 33 7V11C33 11.5523 32.5523 12 32 12H28C27.4477 12 27 11.5523 27 11V7ZM36 6C35.4477 6 35 6.44772 35 7V11C35 11.5523 35.4477 12 36 12H40C40.5523 12 41 11.5523 41 11V7C41 6.44772 40.5523 6 40 6H36ZM3 15C3 14.4477 3.44772 14 4 14H8C8.55228 14 9 14.4477 9 15V19C9 19.5523 8.55228 20 8 20H4C3.44772 20 3 19.5523 3 19V15ZM12 14C11.4477 14 11 14.4477 11 15V19C11 19.5523 11.4477 20 12 20H16C16.5523 20 17 19.5523 17 19V15C17 14.4477 16.5523 14 16 14H12ZM19 15C19 14.4477 19.4477 14 20 14H24C24.5523 14 25 14.4477 25 15V19C25 19.5523 24.5523 20 24 20H20C19.4477 20 19 19.5523 19 19V15ZM28 14C27.4477 14 27 14.4477 27 15V19C27 19.5523 27.4477 20 28 20H32C32.5523 20 33 19.5523 33 19V15C33 14.4477 32.5523 14 32 14H28ZM35 15C35 14.4477 35.4477 14 36 14H40C40.5523 14 41 14.4477 41 15V19C41 19.5523 40.5523 20 40 20H36C35.4477 20 35 19.5523 35 19V15ZM4 22C3.44772 22 3 22.4477 3 23V27C3 27.5523 3.44772 28 4 28H8C8.55228 28 9 27.5523 9 27V23C9 22.4477 8.55228 22 8 22H4ZM11 23C11 22.4477 11.4477 22 12 22H16C16.5523 22 17 22.4477 17 23V27C17 27.5523 16.5523 28 16 28H12C11.4477 28 11 27.5523 11 27V23ZM20 22C19.4477 22 19 22.4477 19 23V27C19 27.5523 19.4477 28 20 28H24C24.5523 28 25 27.5523 25 27V23C25 22.4477 24.5523 22 24 22H20ZM27 23C27 22.4477 27.4477 22 28 22H32C32.5523 22 33 22.4477 33 23V27C33 27.5523 32.5523 28 32 28H28C27.4477 28 27 27.5523 27 27V23ZM36 22C35.4477 22 35 22.4477 35 23V27C35 27.5523 35.4477 28 36 28H40C40.5523 28 41 27.5523 41 27V23C41 22.4477 40.5523 22 40 22H36ZM3 31C3 30.4477 3.44772 30 4 30H8C8.55228 30 9 30.4477 9 31V35C9 35.5523 8.55228 36 8 36H4C3.44772 36 3 35.5523 3 35V31ZM12 30C11.4477 30 11 30.4477 11 31V35C11 35.5523 11.4477 36 12 36H16C16.5523 36 17 35.5523 17 35V31C17 30.4477 16.5523 30 16 30H12ZM19 31C19 30.4477 19.4477 30 20 30H24C24.5523 30 25 30.4477 25 31V35C25 35.5523 24.5523 36 24 36H20C19.4477 36 19 35.5523 19 35V31ZM28 30C27.4477 30 27 30.4477 27 31V35C27 35.5523 27.4477 36 28 36H32C32.5523 36 33 35.5523 33 35V31C33 30.4477 32.5523 30 32 30H28ZM35 31C35 30.4477 35.4477 30 36 30H40C40.5523 30 41 30.4477 41 31V35C41 35.5523 40.5523 36 40 36H36C35.4477 36 35 35.5523 35 35V31ZM4 38C3.44772 38 3 38.4477 3 39V43C3 43.5523 3.44772 44 4 44H8C8.55228 44 9 43.5523 9 43V39C9 38.4477 8.55228 38 8 38H4ZM11 39C11 38.4477 11.4477 38 12 38H16C16.5523 38 17 38.4477 17 39V43C17 43.5523 16.5523 44 16 44H12C11.4477 44 11 43.5523 11 43V39ZM20 38C19.4477 38 19 38.4477 19 39V43C19 43.5523 19.4477 44 20 44H24C24.5523 44 25 43.5523 25 43V39C25 38.4477 24.5523 38 24 38H20ZM27 39C27 38.4477 27.4477 38 28 38H32C32.5523 38 33 38.4477 33 39V43C33 43.5523 32.5523 44 32 44H28C27.4477 44 27 43.5523 27 43V39ZM36 38C35.4477 38 35 38.4477 35 39V43C35 43.5523 35.4477 44 36 44H40C40.5523 44 41 43.5523 41 43V39C41 38.4477 40.5523 38 40 38H36Z" fill="black"/>
</svg>
