<svg width="20" height="36" viewBox="0 0 20 36" fill="none" xmlns="http://www.w3.org/2000/svg">
<path d="M18.4978 9.31169H5.06259V2.4224H15.0733V8.327C15.0733 8.80825 15.491 9.16323 15.9612 9.16323C16.4313 9.16323 16.8492 8.80835 16.8492 8.327V1.58623C16.8492 1.10499 16.4315 0.75 15.9612 0.75H4.1747C3.70468 0.75 3.28674 1.10487 3.28674 1.58623V9.31169H1.63803C1.16801 9.31169 0.750072 9.66656 0.750072 10.1479V25.233C0.750072 25.7143 1.1679 26.0693 1.63803 26.0693C2.10815 26.0693 2.52599 25.7144 2.52599 25.233V10.9841H17.6099V29.6512C17.6099 31.7965 15.7034 33.5776 13.3151 33.5776H6.82078C4.4325 33.5776 2.52592 31.7965 2.52592 29.6512V27.187C2.52592 26.7058 2.1081 26.3508 1.63796 26.3508C1.16784 26.3508 0.75 26.7057 0.75 27.187V29.6512C0.75 32.7581 3.49342 35.25 6.82071 35.25H13.315C16.6422 35.25 19.3857 32.7581 19.3857 29.6512V10.1479C19.3857 10.1479 19.3857 10.1479 19.3857 10.1479C19.3858 9.66645 18.9679 9.31169 18.4978 9.31169Z" fill="#000000" stroke="#000000" stroke-width="0.5"/>
<path d="M7.17812 4.12457C6.82583 4.12457 6.54016 4.38701 6.54016 4.71081V6.95069C6.54016 7.27442 6.82576 7.53693 7.17812 7.53693C7.53049 7.53693 7.81608 7.27449 7.81608 6.95069V4.71081C7.81608 4.38708 7.53049 4.12457 7.17812 4.12457Z" fill="#000000"/>
<path d="M12.9575 4.12457C12.6052 4.12457 12.3196 4.38701 12.3196 4.71081V6.95069C12.3196 7.27442 12.6051 7.53693 12.9575 7.53693C13.31 7.53693 13.5955 7.27449 13.5955 6.95069V4.71081C13.5954 4.38708 13.3099 4.12457 12.9575 4.12457Z" fill="#000000"/>
</svg>
