<svg width="45" height="51" viewBox="0 0 45 51" fill="none" xmlns="http://www.w3.org/2000/svg">
<path d="M28 44C28 46.7614 25.7614 49 23 49C20.2386 49 18 46.7614 18 44C18 44 20.2386 44 23 44C25.7614 44 28 44 28 44Z" fill="black"/>
<path fill-rule="evenodd" clip-rule="evenodd" d="M2 0C0.895431 0 0 0.895432 0 2V42.3478C0 43.4524 0.895432 44.3478 2 44.3478H42.3478C43.4524 44.3478 44.3478 43.4524 44.3478 42.3478V2C44.3478 0.895431 43.4524 0 42.3478 0H2ZM4 3C3.44772 3 3 3.44772 3 4V8C3 8.55228 3.44772 9 4 9H8C8.55228 9 9 8.55228 9 8V4C9 3.44772 8.55228 3 8 3H4ZM11 4C11 3.44772 11.4477 3 12 3H16C16.5523 3 17 3.44772 17 4V8C17 8.55228 16.5523 9 16 9H12C11.4477 9 11 8.55228 11 8V4ZM20 3C19.4477 3 19 3.44772 19 4V8C19 8.55228 19.4477 9 20 9H24C24.5523 9 25 8.55228 25 8V4C25 3.44772 24.5523 3 24 3H20ZM27 4C27 3.44772 27.4477 3 28 3H32C32.5523 3 33 3.44772 33 4V8C33 8.55228 32.5523 9 32 9H28C27.4477 9 27 8.55228 27 8V4ZM36 3C35.4477 3 35 3.44772 35 4V8C35 8.55228 35.4477 9 36 9H40C40.5523 9 41 8.55228 41 8V4C41 3.44772 40.5523 3 40 3H36ZM3 12C3 11.4477 3.44772 11 4 11H8C8.55228 11 9 11.4477 9 12V16C9 16.5523 8.55228 17 8 17H4C3.44772 17 3 16.5523 3 16V12ZM12 11C11.4477 11 11 11.4477 11 12V16C11 16.5523 11.4477 17 12 17H16C16.5523 17 17 16.5523 17 16V12C17 11.4477 16.5523 11 16 11H12ZM19 12C19 11.4477 19.4477 11 20 11H24C24.5523 11 25 11.4477 25 12V16C25 16.5523 24.5523 17 24 17H20C19.4477 17 19 16.5523 19 16V12ZM28 11C27.4477 11 27 11.4477 27 12V16C27 16.5523 27.4477 17 28 17H32C32.5523 17 33 16.5523 33 16V12C33 11.4477 32.5523 11 32 11H28ZM35 12C35 11.4477 35.4477 11 36 11H40C40.5523 11 41 11.4477 41 12V16C41 16.5523 40.5523 17 40 17H36C35.4477 17 35 16.5523 35 16V12ZM4 19C3.44772 19 3 19.4477 3 20V24C3 24.5523 3.44772 25 4 25H8C8.55228 25 9 24.5523 9 24V20C9 19.4477 8.55228 19 8 19H4ZM11 20C11 19.4477 11.4477 19 12 19H16C16.5523 19 17 19.4477 17 20V24C17 24.5523 16.5523 25 16 25H12C11.4477 25 11 24.5523 11 24V20ZM36 19C35.4477 19 35 19.4477 35 20V24C35 24.5523 35.4477 25 36 25H40C40.5523 25 41 24.5523 41 24V20C41 19.4477 40.5523 19 40 19H36ZM19 20C19 19.4477 19.4477 19 20 19H24C24.5523 19 25 19.4477 25 20V24C25 24.5523 24.5523 25 24 25H20C19.4477 25 19 24.5523 19 24V20ZM28 19C27.4477 19 27 19.4477 27 20V24C27 24.5523 27.4477 25 28 25H32C32.5523 25 33 24.5523 33 24V20C33 19.4477 32.5523 19 32 19H28ZM3 28C3 27.4477 3.44772 27 4 27H8C8.55228 27 9 27.4477 9 28V32C9 32.5523 8.55228 33 8 33H4C3.44772 33 3 32.5523 3 32V28ZM12 27C11.4477 27 11 27.4477 11 28V32C11 32.5523 11.4477 33 12 33H16C16.5523 33 17 32.5523 17 32V28C17 27.4477 16.5523 27 16 27H12ZM19 28C19 27.4477 19.4477 27 20 27H24C24.5523 27 25 27.4477 25 28V32C25 32.5523 24.5523 33 24 33H20C19.4477 33 19 32.5523 19 32V28ZM28 27C27.4477 27 27 27.4477 27 28V32C27 32.5523 27.4477 33 28 33H32C32.5523 33 33 32.5523 33 32V28C33 27.4477 32.5523 27 32 27H28ZM35 28C35 27.4477 35.4477 27 36 27H40C40.5523 27 41 27.4477 41 28V32C41 32.5523 40.5523 33 40 33H36C35.4477 33 35 32.5523 35 32V28ZM4 35C3.44772 35 3 35.4477 3 36V40C3 40.5523 3.44772 41 4 41H8C8.55228 41 9 40.5523 9 40V36C9 35.4477 8.55228 35 8 35H4ZM11 36C11 35.4477 11.4477 35 12 35H16C16.5523 35 17 35.4477 17 36V40C17 40.5523 16.5523 41 16 41H12C11.4477 41 11 40.5523 11 40V36ZM20 35C19.4477 35 19 35.4477 19 36V40C19 40.5523 19.4477 41 20 41H24C24.5523 41 25 40.5523 25 40V36C25 35.4477 24.5523 35 24 35H20ZM27 36C27 35.4477 27.4477 35 28 35H32C32.5523 35 33 35.4477 33 36V40C33 40.5523 32.5523 41 32 41H28C27.4477 41 27 40.5523 27 40V36ZM36 35C35.4477 35 35 35.4477 35 36V40C35 40.5523 35.4477 41 36 41H40C40.5523 41 41 40.5523 41 40V36C41 35.4477 40.5523 35 40 35H36Z" fill="black" style="mix-blend-mode:exclusion"/>
</svg>
