<svg width="219" height="187" viewBox="0 0 219 187" fill="none" xmlns="http://www.w3.org/2000/svg">
<path d="M42.668 33.9903L39.2019 31.5145L37.7164 32.5049L35.9833 34.4855L35.4882 36.7137L36.9737 38.4468L38.9543 39.1896L41.4301 39.4371L40.1922 40.9226L39.6971 42.6557L40.4398 43.8936L42.4205 44.8839L44.4011 44.8839L45.639 44.8839L46.8769 47.1122L48.3624 48.1025L50.3431 48.5977L54.0568 48.8453L56.7802 48.1025L58.2657 47.6073L59.5036 46.8646L57.5229 44.8839L55.5423 43.1509L51.581 40.1799L47.1245 36.9613L42.668 33.9903Z" fill="white"/>
<path d="M59.6407 46.9126C58.5084 47.566 57.294 48.0655 56.0297 48.3978C54.5603 48.793 53.0352 48.9404 51.5173 48.834C50.0376 48.7032 48.7798 48.592 47.5717 47.6948C46.6549 46.9887 45.9728 46.0222 45.6147 44.9219C47.1279 44.852 48.6324 44.6524 50.1115 44.3253C51.7913 43.9535 53.4314 43.421 55.0093 42.7352" stroke="black" stroke-width="0.5" stroke-miterlimit="10"/>
<path d="M39.1709 31.388C38.1946 32.0299 37.326 32.8221 36.5972 33.7354C36.0832 34.291 35.7203 34.9692 35.5432 35.7051C35.4404 36.3322 35.5593 36.9755 35.8794 37.5244C36.6144 38.7128 38.5316 39.5186 41.4474 39.5428" stroke="black" stroke-width="0.5" stroke-miterlimit="10"/>
<path d="M48.7757 38.2917C46.6152 39.0353 44.3548 39.4488 42.0708 39.5182C41.9278 39.5056 41.6311 39.544 41.4818 39.5457C40.888 40.0255 40.4259 40.6483 40.1387 41.3557C39.9869 41.6513 39.8974 41.9749 39.8758 42.3064C39.8542 42.638 39.9009 42.9705 40.0131 43.2832C40.3301 44.0271 41.1193 44.3206 41.8857 44.5921C43.5083 45.0737 46.2648 44.8203 46.758 44.8639" stroke="black" stroke-width="0.5" stroke-miterlimit="10"/>
<rect x="0.25497" y="0.249951" width="25.5135" height="24.988" rx="4.75" transform="matrix(1 3.07698e-09 0.0198784 0.999802 15.2935 27.3956)" fill="white" stroke="black" stroke-width="0.5"/>
<path d="M44.1105 10.8274C43.6033 10.9416 39.1832 8.64696 35.7315 8.55554C34.5027 8.53183 33.2843 8.78446 32.1663 9.29477C31.0483 9.80509 30.0592 10.56 29.272 11.5039C26.8438 14.8484 28.5327 19.2479 29.0132 20.5033C29.5831 21.9853 30.5273 23.6197 34.2492 27.1202C36.8922 29.6242 39.7154 31.9307 42.6962 34.0211C51.5457 40.192 55.9749 43.2828 57.6112 44.9039C58.9001 46.181 64.3005 51.6692 67.5747 58.8286C67.8668 59.4608 68.1342 60.0909 69.4977 63.1096C70.3993 65.113 72.7384 70.3107 73.7488 72.4331C76.6239 78.4834 79.805 82.985 83.5255 88.2452C84.1616 89.1465 86.9472 93.0613 90.9679 97.9056C93.7305 101.237 95.1559 102.939 97.3656 104.933C100.263 107.531 100.406 106.977 105.081 110.721C110.146 114.772 112.161 117.168 113.06 118.306C114.129 119.68 115.116 121.117 116.015 122.609C119.873 128.676 123.38 133.271 126.103 136.984C127.735 139.838 160.679 177.962 163.736 183.035C179.503 181.744 186.852 176.101 189.926 173.156C193.343 169.874 199.981 161.762 203.788 156.934C204.909 155.497 205.83 154.301 206.444 153.485C187.125 134.329 140.454 85.3099 138.073 83.0016C137.612 82.5537 137.175 82.0804 136.767 81.5838C135.261 79.723 134.114 77.599 133.384 75.3195C131.296 69.4084 130.25 66.4576 129.844 64.7564C127.972 56.6921 128.908 56.2231 126.997 45.118C126.997 45.118 125.242 34.9464 121.851 27.1902C121.6 26.6062 121.33 26.0505 121.33 26.0505C120.59 24.5206 119.742 23.0453 118.793 21.6357C117.777 20.0794 116.564 18.0037 114.136 13.862C113.337 12.4989 112.951 11.8135 112.059 11.1531C110.59 10.0589 109.049 10.012 107.492 9.8545C103.88 9.49046 103.6 8.88908 99.9989 8.29728C85.682 5.94285 67.2447 7.4047 67.2447 7.4047C59.3863 8.02204 51.5773 9.1583 43.8688 10.806C44.619 11.2601 45.72 11.9639 47.0263 12.8201C50.7654 15.3462 54.3078 18.152 57.6229 21.2134C64.5691 27.4347 68.0421 30.5454 69.4002 31.3216C78.0929 36.2857 87.1326 36.3144 89.3435 36.2712C90.1401 36.2572 90.7949 36.2156 91.245 36.1858C90.4656 35.9603 89.7234 35.6216 89.0422 35.1808C82.0614 30.7012 84.348 16.8704 84.5841 15.5491" fill="white"/>
<path d="M44.1105 10.8274C43.6033 10.9416 39.1832 8.64696 35.7315 8.55554C34.5027 8.53183 33.2843 8.78446 32.1663 9.29477C31.0483 9.80509 30.0592 10.56 29.272 11.5039C26.8438 14.8484 28.5327 19.2479 29.0132 20.5033C29.5831 21.9853 30.5273 23.6197 34.2492 27.1202C36.8922 29.6242 39.7154 31.9307 42.6962 34.0211C51.5457 40.192 55.9749 43.2828 57.6112 44.9039C58.9001 46.181 64.3005 51.6692 67.5747 58.8286C67.8668 59.4608 68.1342 60.0909 69.4977 63.1096C70.3993 65.113 72.7384 70.3107 73.7488 72.4331C76.6239 78.4834 79.805 82.985 83.5255 88.2452C84.1616 89.1465 86.9472 93.0613 90.9679 97.9056C93.7305 101.237 95.1559 102.939 97.3656 104.933C100.263 107.531 100.406 106.977 105.081 110.721C110.146 114.772 112.161 117.168 113.06 118.306C114.129 119.68 115.116 121.117 116.015 122.609C119.873 128.676 123.38 133.271 126.103 136.984C127.735 139.838 160.679 177.962 163.736 183.035C179.503 181.744 186.852 176.101 189.926 173.156C193.343 169.874 199.981 161.762 203.788 156.934C204.909 155.497 205.83 154.301 206.444 153.485C187.125 134.329 140.454 85.3099 138.073 83.0016C137.612 82.5537 137.175 82.0804 136.767 81.5838C135.261 79.723 134.114 77.599 133.384 75.3195C131.296 69.4084 130.25 66.4576 129.844 64.7564C127.972 56.6921 128.908 56.2231 126.997 45.118C126.997 45.118 125.242 34.9464 121.851 27.1902C121.6 26.6062 121.33 26.0505 121.33 26.0505C120.59 24.5206 119.742 23.0453 118.793 21.6357C117.777 20.0794 116.564 18.0037 114.136 13.862C113.337 12.4989 112.951 11.8135 112.059 11.1531C110.59 10.0589 109.049 10.012 107.492 9.8545C103.88 9.49046 103.6 8.88908 99.9989 8.29728C85.682 5.94285 67.2447 7.4047 67.2447 7.4047C59.3863 8.02204 51.5773 9.1583 43.8688 10.806C44.619 11.2601 45.72 11.9639 47.0263 12.8201C50.7654 15.3462 54.3078 18.152 57.6229 21.2134C64.5691 27.4347 68.0421 30.5454 69.4002 31.3216C78.0929 36.2857 87.1326 36.3144 89.3435 36.2712C90.1401 36.2572 90.7949 36.2156 91.245 36.1858C90.4656 35.9603 89.7234 35.6216 89.0422 35.1808C82.0614 30.7012 84.348 16.8704 84.5841 15.5491" stroke="black" stroke-width="0.5" stroke-miterlimit="10"/>
<path d="M38.3547 24.9332C40.4467 24.3434 42.2971 23.1039 43.6386 21.3937C44.7164 19.9883 45.4083 18.3256 45.6458 16.5704C44.7381 15.4316 43.718 14.3871 42.6008 13.4528C40.7752 11.9422 38.7075 10.751 36.4849 9.92955C35.5725 9.52713 34.5929 9.2989 33.5966 9.25663C32.5631 9.16579 31.5273 9.40488 30.6382 9.93955C30.0158 10.3357 29.5116 10.8921 29.1784 11.5503C28.9037 12.1275 28.6437 13.044 29.045 14.8591C29.5225 16.8591 30.4591 18.7203 31.7805 20.2956C33.5395 22.378 35.8029 23.9747 38.3547 24.9332V24.9332Z" fill="#F3F4FB" stroke="black" stroke-width="0.5" stroke-miterlimit="10"/>
<path d="M84.2038 23.3351C80.5633 22.5105 76.8457 22.0486 73.1114 21.9568C71.1026 21.9138 69.0938 21.9734 67.0937 22.1355C64.6615 22.3296 62.246 22.6705 59.8619 23.1561" stroke="black" stroke-width="0.5" stroke-miterlimit="10"/>
<path d="M84.7993 27.8463C79.131 27.3886 73.4364 28.2473 68.1735 30.3531" stroke="black" stroke-width="0.5" stroke-miterlimit="10"/>
</svg>
