<svg width="290" height="179" viewBox="0 0 290 179" fill="none" xmlns="http://www.w3.org/2000/svg">
<g clip-path="url(#clip0)">
<rect x="27" y="15" width="235" height="137" fill="#CAD0F1"/>
<path d="M288.21 160.79H275.79V8.93C275.79 6.56162 274.849 4.29024 273.174 2.61554C271.5 0.940837 269.228 0 266.86 0H22.56C20.1924 0.00264681 17.9226 0.944333 16.2485 2.61846C14.5743 4.29259 13.6326 6.56243 13.63 8.93V160.79H1.22C0.898161 160.79 0.589355 160.917 0.360846 161.144C0.132337 161.37 0.00263802 161.678 0 162L0 167.5C0 170.34 1.52 173.07 4.25 175.18C6.6831 177.054 9.64972 178.105 12.72 178.18H276.72C279.787 178.103 282.75 177.053 285.18 175.18C287.91 173.07 289.43 170.34 289.43 167.5V162C289.427 161.678 289.298 161.37 289.069 161.144C288.841 160.917 288.532 160.79 288.21 160.79ZM22.56 2.43H266.86C268.582 2.43528 270.233 3.12179 271.45 4.33963C272.668 5.55748 273.355 7.20772 273.36 8.93V160.79H16.07V8.93C16.07 7.20782 16.7534 5.55604 17.9703 4.33734C19.1871 3.11864 20.8378 2.43265 22.56 2.43ZM14.85 163.23H287V166.29H2.43V163.23H14.85ZM286.85 168.73C286.32 170.58 285.173 172.192 283.6 173.3C281.623 174.835 279.211 175.706 276.71 175.79H12.71C10.2078 175.709 7.79567 174.838 5.82 173.3C4.24399 172.195 3.09636 170.581 2.57 168.73H286.85Z" fill="#414042"/>
<path d="M28.1501 151.91H261.28C261.602 151.907 261.91 151.778 262.136 151.549C262.363 151.321 262.49 151.012 262.49 150.69V15.76C262.49 15.4391 262.363 15.1313 262.136 14.9044C261.909 14.6775 261.601 14.55 261.28 14.55H28.1501C27.9903 14.5487 27.8319 14.579 27.6839 14.6392C27.536 14.6994 27.4014 14.7884 27.288 14.9008C27.1746 15.0133 27.0845 15.1472 27.0231 15.2946C26.9617 15.4421 26.93 15.6003 26.9301 15.76V150.69C26.9301 151.014 27.0586 151.324 27.2874 151.553C27.5162 151.781 27.8265 151.91 28.1501 151.91ZM29.3601 149.47V17H260.06V149.47H29.3601Z" fill="#414042"/>
<circle cx="143.5" cy="7.5" r="3" stroke="#414042"/>
<circle cx="143.5" cy="7.5" r="1" stroke="#414042"/>
<circle cx="150" cy="5" r="1.15" fill="#00FF38" stroke="black" stroke-width="0.3"/>
</g>
<defs>
<clipPath id="clip0">
<rect width="289.42" height="178.23" fill="white"/>
</clipPath>
</defs>
</svg>
