<svg width="67" height="118" viewBox="0 0 67 118" fill="none" xmlns="http://www.w3.org/2000/svg">
<path d="M43.2667 5.90002H23.6001C22.5146 5.90002 21.6335 6.78111 21.6335 7.86661C21.6335 8.95212 22.5146 9.8332 23.6001 9.8332H43.2667C44.3522 9.8332 45.2333 8.95212 45.2333 7.86661C45.2333 6.78111 44.3522 5.90002 43.2667 5.90002Z" fill="#5576C5"/>
<path d="M57.0334 5.90002H55.0668C53.9813 5.90002 53.1002 6.78111 53.1002 7.86661C53.1002 8.95212 53.9813 9.8332 55.0668 9.8332H57.0334C58.1189 9.8332 59 8.95212 59 7.86661C59 6.78111 58.1189 5.90002 57.0334 5.90002Z" fill="#5576C5"/>
<path d="M35.8759 100.3H30.9927C28.0014 100.3 25.5668 102.735 25.5668 105.726V106.676C25.5668 109.667 28.0014 112.1 30.9909 112.1H35.874C38.8653 112.1 41.3 109.667 41.3 106.676V105.726C41.3 102.735 38.8653 100.3 35.8759 100.3ZM37.3668 106.676C37.3668 107.498 36.6982 108.167 35.8761 108.167H30.9927C30.1688 108.167 29.5 107.498 29.5 106.676V105.726C29.5 104.902 30.1685 104.233 30.9927 104.233H35.874C36.6982 104.233 37.3668 104.902 37.3668 105.726V106.676V106.676Z" fill="#5576C5"/>
<path d="M59.7592 0H7.1095C3.18992 0 0 3.18992 0 7.1095V110.891C0 114.81 3.18992 118 7.1095 118H59.7571C63.6767 118 66.8666 114.81 66.8666 110.893V7.1095C66.8668 3.18992 63.6769 0 59.7592 0ZM62.9334 110.891C62.9334 112.641 61.5096 114.067 59.7592 114.067H7.1095C5.35725 114.067 3.93341 112.641 3.93341 110.892V7.1095C3.93341 5.35909 5.35725 3.93341 7.1095 3.93341H59.7571C61.5093 3.93341 62.9332 5.35932 62.9332 7.1095V110.891H62.9334Z" fill="#5576C5"/>
<path d="M64.8998 11.8H1.96659C0.881083 11.8 0 12.6811 0 13.7666V96.3666C0 97.4521 0.881083 98.3332 1.96659 98.3332H64.9C65.9855 98.3332 66.8666 97.4521 66.8666 96.3666V13.7666C66.8666 12.6811 65.9855 11.8 64.8998 11.8ZM62.9332 94.4H3.93318V15.7335H62.9332V94.4Z" fill="#5576C5"/>
</svg>
