<?xml version="1.0" encoding="UTF-8" standalone="no"?>
<svg
   xmlns:dc="http://purl.org/dc/elements/1.1/"
   xmlns:cc="http://creativecommons.org/ns#"
   xmlns:rdf="http://www.w3.org/1999/02/22-rdf-syntax-ns#"
   xmlns:svg="http://www.w3.org/2000/svg"
   xmlns="http://www.w3.org/2000/svg"
   xmlns:sodipodi="http://sodipodi.sourceforge.net/DTD/sodipodi-0.dtd"
   xmlns:inkscape="http://www.inkscape.org/namespaces/inkscape"
   height="48"
   width="48"
   version="1.1"
   id="svg12"
   sodipodi:docname="qr_code.svg"
   inkscape:version="1.0.2 (e86c8708, 2021-01-15)">
  <metadata
     id="metadata18">
    <rdf:RDF>
      <cc:Work
         rdf:about="">
        <dc:format>image/svg+xml</dc:format>
        <dc:type
           rdf:resource="http://purl.org/dc/dcmitype/StillImage" />
      </cc:Work>
    </rdf:RDF>
  </metadata>
  <defs
     id="defs16" />
  <sodipodi:namedview
     pagecolor="#ffffff"
     bordercolor="#666666"
     borderopacity="1"
     objecttolerance="10"
     gridtolerance="10"
     guidetolerance="10"
     inkscape:pageopacity="0"
     inkscape:pageshadow="2"
     inkscape:window-width="1985"
     inkscape:window-height="1227"
     id="namedview14"
     showgrid="false"
     inkscape:zoom="15.3125"
     inkscape:cx="20.865306"
     inkscape:cy="24"
     inkscape:window-x="63"
     inkscape:window-y="505"
     inkscape:window-maximized="1"
     inkscape:current-layer="svg12" />
  <path
     d="M6 22.5V6h16.5v16.5Zm3-3h10.5V9H9ZM6 42V25.5h16.5V42Zm3-3h10.5V28.5H9Zm16.5-16.5V6H42v16.5Zm3-3H39V9H28.5ZM37.9 42v-4.1H42V42ZM25.5 29.65V25.5h4.1v4.15Zm4.1 4.1v-4.1h4.15v4.1Zm-4.1 4.15v-4.15h4.1v4.15Zm4.1 4.1v-4.1h4.15V42Zm4.15-4.1v-4.15h4.15v4.15Zm0-8.25V25.5h4.15v4.15Zm4.15 4.1v-4.1H42v4.1Z"
     id="path10"
     style="fill:#000000;fill-opacity:1" />
</svg>