<svg width="1024" height="1024" viewBox="0 0 1024 1024" fill="none" xmlns="http://www.w3.org/2000/svg">
<path fill-rule="evenodd" clip-rule="evenodd" d="M1024 0L0 0L0 1024H1024V0ZM52 2C24.3858 2 2 24.3858 2 52V132C2 159.614 24.3858 182 52 182H132C159.614 182 182 159.614 182 132V52C182 24.3858 159.614 2 132 2H52ZM212 52C212 24.3858 234.386 2 262 2H342C369.614 2 392 24.3858 392 52V132C392 159.614 369.614 182 342 182H262C234.386 182 212 159.614 212 132V52ZM472 2C444.386 2 422 24.3858 422 52V132C422 159.614 444.386 182 472 182H552C579.614 182 602 159.614 602 132V52C602 24.3858 579.614 2 552 2H472ZM632 52C632 24.3858 654.386 2 682 2H762C789.614 2 812 24.3858 812 52V132C812 159.614 789.614 182 762 182H682C654.386 182 632 159.614 632 132V52ZM892 2C864.386 2 842 24.3858 842 52V132C842 159.614 864.386 182 892 182H972C999.614 182 1022 159.614 1022 132V52C1022 24.3858 999.614 2 972 2H892ZM2 262C2 234.386 24.3858 212 52 212H132C159.614 212 182 234.386 182 262V342C182 369.614 159.614 392 132 392H52C24.3858 392 2 369.614 2 342V262ZM262 212C234.386 212 212 234.386 212 262V342C212 369.614 234.386 392 262 392H342C369.614 392 392 369.614 392 342V262C392 234.386 369.614 212 342 212H262ZM422 262C422 234.386 444.386 212 472 212H552C579.614 212 602 234.386 602 262V342C602 369.614 579.614 392 552 392H472C444.386 392 422 369.614 422 342V262ZM682 212C654.386 212 632 234.386 632 262V342C632 369.614 654.386 392 682 392H762C789.614 392 812 369.614 812 342V262C812 234.386 789.614 212 762 212H682ZM842 262C842 234.386 864.386 212 892 212H972C999.614 212 1022 234.386 1022 262V342C1022 369.614 999.614 392 972 392H892C864.386 392 842 369.614 842 342V262ZM52 422C24.3858 422 2 444.386 2 472V552C2 579.614 24.3858 602 52 602H132C159.614 602 182 579.614 182 552V472C182 444.386 159.614 422 132 422H52ZM212 472C212 444.386 234.386 422 262 422H342C369.614 422 392 444.386 392 472V552C392 579.614 369.614 602 342 602H262C234.386 602 212 579.614 212 552V472ZM472 422C444.386 422 422 444.386 422 472V552C422 579.614 444.386 602 472 602H552C579.614 602 602 579.614 602 552V472C602 444.386 579.614 422 552 422H472ZM632 472C632 444.386 654.386 422 682 422H762C789.614 422 812 444.386 812 472V552C812 579.614 789.614 602 762 602H682C654.386 602 632 579.614 632 552V472ZM892 422C864.386 422 842 444.386 842 472V552C842 579.614 864.386 602 892 602H972C999.614 602 1022 579.614 1022 552V472C1022 444.386 999.614 422 972 422H892ZM2 682C2 654.386 24.3858 632 52 632H132C159.614 632 182 654.386 182 682V762C182 789.614 159.614 812 132 812H52C24.3858 812 2 789.614 2 762V682ZM262 632C234.386 632 212 654.386 212 682V762C212 789.614 234.386 812 262 812H342C369.614 812 392 789.614 392 762V682C392 654.386 369.614 632 342 632H262ZM422 682C422 654.386 444.386 632 472 632H552C579.614 632 602 654.386 602 682V762C602 789.614 579.614 812 552 812H472C444.386 812 422 789.614 422 762V682ZM682 632C654.386 632 632 654.386 632 682V762C632 789.614 654.386 812 682 812H762C789.614 812 812 789.614 812 762V682C812 654.386 789.614 632 762 632H682ZM842 682C842 654.386 864.386 632 892 632H972C999.614 632 1022 654.386 1022 682V762C1022 789.614 999.614 812 972 812H892C864.386 812 842 789.614 842 762V682ZM52 842C24.3858 842 2 864.386 2 892V972C2 999.614 24.3858 1022 52 1022H132C159.614 1022 182 999.614 182 972V892C182 864.386 159.614 842 132 842H52ZM212 892C212 864.386 234.386 842 262 842H342C369.614 842 392 864.386 392 892V972C392 999.614 369.614 1022 342 1022H262C234.386 1022 212 999.614 212 972V892ZM472 842C444.386 842 422 864.386 422 892V972C422 999.614 444.386 1022 472 1022H552C579.614 1022 602 999.614 602 972V892C602 864.386 579.614 842 552 842H472ZM632 892C632 864.386 654.386 842 682 842H762C789.614 842 812 864.386 812 892V972C812 999.614 789.614 1022 762 1022H682C654.386 1022 632 999.614 632 972V892ZM892 842C864.386 842 842 864.386 842 892V972C842 999.614 864.386 1022 892 1022H972C999.614 1022 1022 999.614 1022 972V892C1022 864.386 999.614 842 972 842H892Z" fill="black" style="mix-blend-mode:exclusion"/>
</svg>
