<svg width="38" height="42" viewBox="0 0 38 42" fill="none" xmlns="http://www.w3.org/2000/svg">
<path d="M18.0921 1.08422e-07L18.0921 17.0107L10.284 10.2957L9 11.3999L19 20L29 11.3999L27.716 10.2957L19.9079 17.0107L19.9079 1.30076e-07L18.0921 1.08422e-07Z" fill="#000000"/>
<path fill-rule="evenodd" clip-rule="evenodd" d="M3 23C1.34315 23 0 24.3431 0 26V39C0 40.6569 1.34315 42 3 42H35C36.6569 42 38 40.6569 38 39V26C38 24.3431 36.6569 23 35 23H3ZM7.69046 35.6667C9.43936 35.6667 10.8571 34.2489 10.8571 32.5C10.8571 30.7511 9.43936 29.3334 7.69046 29.3334C5.94156 29.3334 4.5238 30.7511 4.5238 32.5C4.5238 34.2489 5.94156 35.6667 7.69046 35.6667ZM22.619 32.5C22.619 34.2489 21.2013 35.6667 19.4524 35.6667C17.7035 35.6667 16.2857 34.2489 16.2857 32.5C16.2857 30.7511 17.7035 29.3334 19.4524 29.3334C21.2013 29.3334 22.619 30.7511 22.619 32.5ZM31.2143 35.6667C32.9632 35.6667 34.3809 34.2489 34.3809 32.5C34.3809 30.7511 32.9632 29.3334 31.2143 29.3334C29.4654 29.3334 28.0476 30.7511 28.0476 32.5C28.0476 34.2489 29.4654 35.6667 31.2143 35.6667Z" fill="#000000"/>
</svg>
