<svg width="38" height="19" viewBox="0 0 38 19" fill="none" xmlns="http://www.w3.org/2000/svg">
<path fill-rule="evenodd" clip-rule="evenodd" d="M3 0C1.34315 0 0 1.34315 0 3V16C0 17.6569 1.34315 19 3 19H35C36.6569 19 38 17.6569 38 16V3C38 1.34315 36.6569 0 35 0H3ZM7.69046 12.6667C9.43936 12.6667 10.8571 11.2489 10.8571 9.50002C10.8571 7.75112 9.43936 6.33336 7.69046 6.33336C5.94156 6.33336 4.5238 7.75112 4.5238 9.50002C4.5238 11.2489 5.94156 12.6667 7.69046 12.6667ZM22.619 9.50002C22.619 11.2489 21.2013 12.6667 19.4524 12.6667C17.7035 12.6667 16.2857 11.2489 16.2857 9.50002C16.2857 7.75112 17.7035 6.33336 19.4524 6.33336C21.2013 6.33336 22.619 7.75112 22.619 9.50002ZM31.2143 12.6667C32.9632 12.6667 34.3809 11.2489 34.3809 9.50002C34.3809 7.75112 32.9632 6.33336 31.2143 6.33336C29.4654 6.33336 28.0476 7.75112 28.0476 9.50002C28.0476 11.2489 29.4654 12.6667 31.2143 12.6667Z" fill="#000000"/>
</svg>
